<?xml version="1.0" encoding="UTF-8"?>
<!DOCTYPE svg PUBLIC "-//W3C//DTD SVG 1.1//EN" "http://www.w3.org/Graphics/SVG/1.1/DTD/svg11.dtd">
<!-- Creator: CorelDRAW -->
<svg xmlns="http://www.w3.org/2000/svg" xml:space="preserve" width="101.6mm" height="50.8001mm" version="1.1" style="shape-rendering:geometricPrecision; text-rendering:geometricPrecision; image-rendering:optimizeQuality; fill-rule:evenodd; clip-rule:evenodd"
viewBox="0 0 11714.53 5857.28"
 xmlns:xlink="http://www.w3.org/1999/xlink"
 xmlns:xodm="http://www.corel.com/coreldraw/odm/2003">
 <defs>
  <style type="text/css">
   <![CDATA[
    .str0 {stroke:white;stroke-width:30.51;stroke-miterlimit:22.9256;stroke-opacity:0.101961}
    .fil3 {fill:none;fill-rule:nonzero}
    .fil1 {fill:none;fill-rule:nonzero}
    .fil11 {fill:#FEFEFE;fill-rule:nonzero}
    .fil9 {fill:#2E9E6B;fill-rule:nonzero}
    .fil6 {fill:#D6F5E2;fill-rule:nonzero}
    .fil5 {fill:#EAFFF2;fill-rule:nonzero}
    .fil4 {fill:white;fill-rule:nonzero}
    .fil2 {fill:white;fill-rule:nonzero;fill-opacity:0.058824}
    .fil10 {fill:#FEFEFE;fill-rule:nonzero;fill-opacity:0.549020}
    .fil12 {fill:white;fill-rule:nonzero;fill-opacity:0.701961}
    .fil7 {fill:#FEFEFE;fill-rule:nonzero;fill-opacity:0.800000}
    .fil0 {fill:url(#id1);fill-rule:nonzero}
    .fil8 {fill:url(#id2);fill-rule:nonzero}
   ]]>
  </style>
   <clipPath id="id0" style="clip-rule:nonzero">
    <path d="M-0 5857.28l11714.53 0 0 -5857.28 -11714.53 0 0 5857.28z"/>
   </clipPath>
  <linearGradient id="id1" gradientUnits="userSpaceOnUse" x1="3514.35" y1="-1757.18" x2="8200.18" y2="7614.45">
   <stop offset="0" style="stop-opacity:1; stop-color:#2E9E6B"/>
   <stop offset="1" style="stop-opacity:1; stop-color:#5CC98C"/>
  </linearGradient>
  <linearGradient id="id2" gradientUnits="userSpaceOnUse" xlink:href="#id1" x1="3018.85" y1="1916.17" x2="1144.51" y2="3790.5">
  </linearGradient>
 </defs>
 <g id="圖層_x0020_1">
  <metadata id="CorelCorpID_0Corel-Layer"/>
  <polygon class="fil0" points="-0,5857.28 11714.53,5857.28 11714.53,0 -0,0 "/>
  <g style="clip-path:url(#id0)">
   <g id="_2231422521856">
    <path id="_1" class="fil1 str0" d="M11640.31 3267.08c0,-309.05 -250.55,-559.61 -559.61,-559.61 -309.06,0 -559.62,250.56 -559.62,559.61 0,309.07 250.56,559.61 559.62,559.61 309.06,0 559.61,-250.54 559.61,-559.61z"/>
    <path class="fil1 str0" d="M12106.64 3267.08c0,-566.61 -459.32,-1025.96 -1025.94,-1025.96 -566.61,0 -1025.96,459.35 -1025.96,1025.96 0,566.62 459.35,1025.96 1025.96,1025.96 566.62,0 1025.94,-459.33 1025.94,-1025.96z"/>
    <path class="fil1 str0" d="M12619.62 3267.08c0,-849.93 -688.99,-1538.92 -1538.93,-1538.92 -849.93,0 -1538.93,688.99 -1538.93,1538.92 0,849.94 689,1538.94 1538.93,1538.94 849.94,0 1538.93,-689 1538.93,-1538.94z"/>
    <path class="fil1 str0" d="M12992.31 3469.6c0,-1159.01 -939.54,-2098.55 -2098.55,-2098.55 -1158.99,0 -2098.53,939.54 -2098.53,2098.55 0,1158.99 939.54,2098.54 2098.53,2098.54 1159.01,0 2098.55,-939.55 2098.55,-2098.54z"/>
    <path class="fil2" d="M11994.35 596.91c0,-463.58 -375.83,-839.41 -839.43,-839.41 -463.59,0 -839.41,375.83 -839.41,839.41 0,463.61 375.82,839.43 839.41,839.43 463.6,0 839.43,-375.82 839.43,-839.43z"/>
   </g>
  </g>
  <polygon class="fil3" points="-0,5857.28 11714.53,5857.28 11714.53,0 -0,0 "/>
  <path class="fil4" d="M4339.52 2153.78l-259.67 0 0 -26.17c12.29,-0.92 26.63,-3.1 43.17,-6.54 16.52,-3.56 24.79,-7.92 24.79,-13.09 0,-1.84 -0.23,-3.79 -0.58,-6.09 -0.33,-2.29 -1.26,-5.28 -2.74,-9.19l-40.99 -99.4 -165.18 0c-3.91,9.29 -8.04,20.09 -12.64,32.48 -4.59,12.39 -8.6,23.42 -11.93,33.17 -4.24,12.64 -6.77,21.7 -7.58,27.33 -0.81,5.74 -1.15,9.64 -1.15,11.93 0,7.13 5.4,13.32 16.3,18.37 10.91,5.05 29.16,8.73 54.53,11.02l0 26.17 -195.61 0 0 -26.17c7.34,-0.46 15.73,-1.6 25.03,-3.56 9.29,-1.83 16.64,-4.47 22.03,-7.92 9.19,-5.38 16.88,-11.93 23.3,-19.85 6.43,-7.81 11.71,-17.1 15.96,-27.89 25.94,-63.02 52,-126.16 78.06,-189.53 26.17,-63.24 54.99,-133.05 86.56,-209.26l67.15 0c43.85,108.13 78.29,193.65 103.09,256.44 24.9,62.79 46.03,114.91 63.47,156.12 2.99,6.78 6.66,12.87 11.14,18.37 4.47,5.51 10.91,10.68 19.17,15.61 6.19,3.68 13.55,6.32 21.8,8.15 8.27,1.73 15.84,2.87 22.51,3.33l0 26.17zm-249.45 -192.85l-69.68 -174.48 -68.77 174.48 138.44 0z"/>
  <path id="_1_272" class="fil4" d="M4717.18 1858.3l-73.7 0c8.73,9.77 15.28,20.1 19.64,30.99 4.36,10.91 6.54,22.16 6.54,33.98 0,15.5 -4.13,29.97 -12.39,43.51 -8.38,13.54 -19.16,24.56 -32.6,33.06 -13.66,8.73 -29.74,15.61 -48.1,20.55 -18.37,4.93 -38.34,7.34 -59.81,7.34l-54.99 0c-2.76,1.96 -5.74,5.17 -8.95,9.54 -3.33,4.36 -4.95,8.6 -4.95,12.63 0,9.75 3.91,16.64 11.83,20.43 7.81,3.79 22.03,5.86 42.59,6.32 20.43,0.45 41.09,1.26 61.87,2.53 20.89,1.26 35.81,1.95 44.77,2.18 12.97,0.69 25.83,3.32 38.68,7.92 12.74,4.59 23.88,10.68 33.29,18.02 10.22,7.92 18.83,17.91 25.48,30.19 6.78,12.29 10.1,26.4 10.1,42.36 0,17.1 -4.13,33.17 -12.28,48.22 -8.15,15.04 -20.66,28.12 -37.41,39.14 -17.69,11.47 -38.93,20.32 -63.72,26.62 -24.69,6.32 -55.33,9.42 -91.84,9.42 -58.88,0 -103.77,-7.24 -134.42,-21.58 -30.66,-14.35 -46.04,-35.93 -46.04,-64.74 0,-17.68 8.27,-32.38 24.8,-43.73 16.64,-11.48 42.36,-17.8 77.25,-18.94l0 -4.02c-20.66,-7 -36.73,-16.18 -48.21,-27.78 -11.6,-11.48 -17.34,-24.9 -17.34,-40.18 0,-9.41 2.29,-17.33 6.89,-23.87 4.59,-6.55 10.56,-12.29 17.79,-17.23 6.19,-4.24 13.89,-7.92 22.84,-10.91 9.07,-2.99 16.53,-5.4 22.61,-7.23l0 -3.67c-30.19,-11.25 -52.45,-24.92 -66.69,-40.99 -14.24,-16.07 -21.35,-35.81 -21.35,-59.11 0,-32.94 15.15,-59.23 45.58,-78.98 30.3,-19.62 68.75,-29.51 115.36,-29.51 15.28,0 29.97,1.27 44.21,3.91 14.23,2.64 25.02,5.05 32.48,7.11l130.17 0 0 36.5zm-157.72 63.02c0,-26.29 -4.14,-46.95 -12.41,-62.22 -8.37,-15.27 -21.11,-22.84 -38.34,-22.84 -8.73,0 -16.42,2.06 -22.84,6.19 -6.55,4.14 -11.83,10.1 -15.84,18.02 -3.79,7.59 -6.43,16.53 -7.69,26.63 -1.38,10.22 -2.06,20.66 -2.06,31.45 0,24.46 4.24,44.54 12.74,60.15 8.5,15.73 20.66,23.53 36.39,23.53 16.07,0 28.47,-7 37.08,-21.12 8.6,-14.11 12.97,-34.09 12.97,-59.81zm56.47 283.2c0,-7.7 -2.18,-15.28 -6.43,-22.74 -4.24,-7.58 -13.77,-13.66 -28.47,-18.48 -8.14,-1.26 -21.34,-2.18 -39.82,-2.64 -18.48,-0.45 -43.86,-0.68 -76.11,-0.68 -7.81,6.77 -14.35,14.69 -19.64,23.98 -5.28,9.19 -7.92,20.33 -7.92,33.41 0,5.62 1.61,11.7 4.72,18.48 3.09,6.77 8.02,13.09 14.8,18.93 7.81,6.55 16.53,11.6 26.17,15.38 9.64,3.68 24.22,5.51 43.73,5.51 28.81,0 50.86,-5.63 66.12,-16.87 15.27,-11.25 22.84,-29.39 22.84,-54.29z"/>
  <path id="_2" class="fil4" d="M5099.22 2073.77c-7.81,12.74 -17.33,24.79 -28.35,36.16 -11.14,11.24 -23.76,20.89 -37.89,29.04 -14.92,8.49 -30.07,14.92 -45.45,19.28 -15.38,4.37 -32.95,6.55 -52.92,6.55 -33.17,0 -61.75,-4.7 -85.86,-14.12 -23.99,-9.41 -43.96,-22.03 -59.58,-37.99 -15.73,-15.96 -27.44,-34.67 -35.13,-56.37 -7.69,-21.57 -11.59,-45.11 -11.59,-70.37 0,-22.84 4.24,-44.77 12.63,-65.77 8.38,-20.89 20.32,-39.61 35.81,-55.91 15.15,-15.96 34.44,-28.81 57.63,-38.68 23.19,-9.87 49.13,-14.82 77.71,-14.82 31.45,0 57.17,3.79 77.38,11.48 20.09,7.58 36.85,18.14 50.04,31.57 12.75,12.74 22.05,27.78 27.9,45.12 5.86,17.33 8.72,35.58 8.72,54.64l0 21.8 -227.28 0c0,46.04 8.83,81.04 26.51,105.15 17.8,23.99 45.92,36.04 84.38,36.04 21.12,0 40.07,-5.74 56.82,-17.33 16.88,-11.6 31.22,-26.29 43.05,-43.96l25.48 18.48zm-128.11 -128c0,-13.32 -0.69,-27.1 -2.06,-41.1 -1.27,-14.11 -3.68,-25.6 -7,-34.54 -3.79,-10.45 -9.07,-18.37 -15.73,-23.76 -6.55,-5.4 -14.93,-8.04 -25.03,-8.04 -17.33,0 -31.11,8.73 -41.44,26.17 -10.33,17.33 -15.96,44.89 -16.87,82.65l108.13 -1.37z"/>
  <path id="_3" class="fil4" d="M5575.72 2153.78l-202.49 0 0 -24.79c4.24,-0.46 9.52,-1.04 15.61,-1.73 6.09,-0.69 10.68,-1.72 13.89,-3.33 4.7,-2.41 8.15,-6.08 10.1,-10.78 2.06,-4.72 3.1,-11.6 3.1,-20.89l0 -157.39c0,-22.84 -4.14,-40.07 -12.52,-51.65 -8.37,-11.6 -20.78,-17.34 -37.07,-17.34 -8.96,0 -17.23,1.38 -24.92,4.02 -7.69,2.76 -15.27,6.65 -22.61,11.82 -6.55,4.49 -11.71,9.07 -15.61,13.78 -3.91,4.7 -7.23,8.84 -9.87,12.39l0 180.69c0,7.92 1.14,14.46 3.32,19.74 2.18,5.28 5.86,9.19 11.02,11.95 3.56,1.95 8.04,3.78 13.32,5.4 5.4,1.49 10.56,2.64 15.73,3.33l0 24.79 -204.57 0 0 -24.79c5.63,-0.46 11.25,-1.04 16.88,-1.84 5.74,-0.8 10.56,-1.83 14.69,-3.22 7.13,-2.41 12.06,-6.19 14.7,-11.36 2.64,-5.17 4.01,-11.83 4.01,-20.1l0 -195.15c0,-7 -1.83,-13.77 -5.4,-20.43 -3.55,-6.77 -8.27,-12.16 -14.11,-16.42 -4.02,-2.76 -9.07,-4.93 -15.28,-6.77 -6.19,-1.72 -12.97,-2.99 -20.32,-3.68l0 -24.79 160.95 -8.96 5.05 5.05 0 48.33 1.37 0c6.2,-5.63 13.78,-12.28 22.73,-20.2 8.96,-7.81 17.23,-14.24 24.8,-19.17 8.27,-5.4 19.06,-9.99 32.48,-13.78 13.43,-3.78 27.67,-5.74 42.94,-5.74 36.39,0 63.7,10.34 81.85,31.12 18.25,20.78 27.31,48.21 27.31,82.53l0 164.85c0,8.27 1.27,14.92 3.68,19.85 2.53,4.93 7.11,8.84 13.88,11.83 3.56,1.49 8.04,3.09 13.32,4.7 5.28,1.49 11.25,2.64 18.02,3.33l0 24.79z"/>
  <path id="_4" class="fil4" d="M5856.74 2138.4c-14.35,6.2 -29.62,11.82 -45.92,16.87 -16.41,4.95 -36.27,7.47 -59.81,7.47 -34.89,0 -60.72,-8.5 -77.6,-25.49 -16.87,-16.98 -25.37,-41.32 -25.37,-72.89l0 -206.05 -60.61 0 0 -36.5 61.99 0 0 -101.94 108.83 0 0 101.94 94.35 0 0 36.5 -93.67 0 0 184.02c0,26.17 3.68,44.77 10.91,55.78 7.34,10.91 20.32,16.42 39.14,16.42 6.09,0 14.47,-0.46 25.25,-1.26 10.79,-0.81 18.25,-1.84 22.51,-2.87l0 28.01z"/>
  <path id="_5" class="fil4" d="M6259.43 2166.86c-29.26,0 -56.47,-3.68 -81.61,-10.91 -25.26,-7.34 -46.6,-15.84 -64.18,-25.71l-23.19 23.53 -28.93 0 -4.13 -172.19 28.93 0c6.54,16.3 14.8,33.52 24.9,51.65 10.1,18.02 21.7,34.21 35.02,48.56 13.66,15.04 28.93,27.2 45.91,36.5 16.88,9.41 36.62,14.11 59.35,14.11 30.43,0 53.85,-7.46 70.15,-22.26 16.18,-14.93 24.33,-33.63 24.33,-56.26 0,-18.48 -6.88,-34.09 -20.66,-46.72 -13.78,-12.63 -35.12,-23.53 -64.05,-32.83 -18.94,-6.09 -36.27,-11.71 -52,-16.88 -15.84,-5.17 -30.66,-10.45 -44.66,-15.84 -32.03,-12.86 -55.91,-31.11 -71.41,-54.99 -15.61,-23.76 -23.42,-50.39 -23.42,-79.78 0,-18.6 4.02,-36.5 12.16,-53.72 8.04,-17.23 19.87,-32.61 35.36,-46.27 14.8,-12.86 33.75,-23.3 56.82,-31.34 23.07,-8.15 48.22,-12.16 75.42,-12.16 26.52,0 51.31,3.68 74.39,11.14 23.07,7.34 41.32,14.69 54.53,22.15l20.55 -20.2 28.93 0 2.76 162.55 -28.93 0c-6.78,-17.46 -14.59,-35.36 -23.65,-53.61 -9.07,-18.25 -18.71,-33.52 -28.81,-45.57 -10.91,-12.97 -23.65,-23.42 -38,-31.11 -14.23,-7.69 -31.11,-11.6 -50.39,-11.6 -24.22,0 -43.96,6.88 -59.23,20.55 -15.39,13.66 -23.08,30.65 -23.08,50.86 0,19.05 6.66,34.66 19.98,46.72 13.43,12.16 34.21,22.84 62.45,32.02 16.64,5.63 33.52,11.25 50.85,16.76 17.23,5.63 32.61,11.02 46.04,16.19 32.6,12.63 57.28,29.96 74.27,52.12 16.88,22.03 25.37,49.48 25.37,82.3 0,20.66 -4.82,40.64 -14.46,59.92 -9.64,19.29 -22.61,35.36 -39.03,48.22 -17.91,14.11 -38.68,25.02 -62.22,32.6 -23.65,7.69 -51.09,11.48 -82.43,11.48z"/>
  <path id="_6" class="fil4" d="M6934.19 2153.78l-157.95 0c-19.64,-34.21 -37.54,-63.25 -53.73,-87.13 -16.19,-23.87 -31.45,-45.91 -45.8,-66.34l-20.1 16.98 0 73.12c0,8.04 1.15,14.59 3.56,19.75 2.29,5.17 6.88,8.95 13.66,11.47 4.01,1.73 8.73,3.33 14.11,4.72 5.4,1.26 10.79,2.18 16.19,2.64l0 24.79 -208.69 0 0 -24.79c5.63,-0.46 11.25,-1.04 16.88,-1.84 5.63,-0.8 10.56,-1.83 14.8,-3.22 7.23,-2.41 12.16,-6.19 14.69,-11.36 2.64,-5.17 3.91,-11.95 3.91,-20.2l0 -374.46c0,-7.46 -1.6,-15.04 -4.82,-23.07 -3.33,-7.92 -8.04,-13.89 -14.24,-17.91 -4.24,-2.76 -10.68,-4.93 -19.16,-6.78 -8.5,-1.72 -16.19,-2.87 -23.08,-3.32l0 -24.8 167.14 -8.95 5.05 5.4 0 347.58c16.65,-14.69 35.25,-31.9 56.02,-51.31 20.78,-19.52 37.43,-35.58 49.94,-48.44 7.46,-7.59 11.47,-13.43 12.28,-17.34 0.81,-3.9 1.27,-6.31 1.27,-7.23 0,-4.02 -3.56,-7.46 -10.68,-10.1 -7.01,-2.76 -17.57,-5.05 -31.68,-7.11l0 -24.11 170.81 0 0 23.42c-22.5,6.31 -39.59,12.16 -51.42,17.56 -11.7,5.51 -24.56,12.86 -38.57,22.05 -9.19,6.08 -18.14,12.39 -26.75,18.93 -8.61,6.66 -18.48,14.93 -29.61,24.8 21.92,31.68 42.12,61.06 60.72,88.16 18.6,26.98 38.12,55.68 58.43,85.86 7,10.45 15.61,17.44 25.94,21.12 10.22,3.56 20.55,5.74 30.88,6.66l0 24.79z"/>
  <path id="_7" class="fil4" d="M7150.35 2153.78l-211.45 0 0 -24.79c5.74,-0.46 11.37,-1.04 16.88,-1.73 5.5,-0.58 10.22,-1.72 14.23,-3.33 7,-2.64 12.06,-6.54 14.92,-11.59 2.87,-4.93 4.25,-11.6 4.25,-19.87l0 -195.15c0,-7.81 -1.83,-14.69 -5.4,-20.66 -3.56,-5.86 -8.04,-10.68 -13.32,-14.23 -4.01,-2.64 -10.1,-5.28 -18.25,-7.69 -8.15,-2.53 -15.61,-4.02 -22.26,-4.72l0 -24.79 165.06 -8.96 5.05 5.05 0 266.67c0,7.81 1.61,14.47 4.93,19.98 3.33,5.5 8.04,9.64 14.24,12.28 4.47,1.95 9.29,3.78 14.57,5.4 5.28,1.49 10.79,2.64 16.53,3.33l0 24.79zm-48.21 -458.25c0,17.1 -6.55,31.57 -19.75,43.5 -13.09,12.05 -28.58,18.02 -46.49,18.02 -18.25,0 -33.86,-5.97 -46.95,-18.02 -13.2,-11.93 -19.75,-26.4 -19.75,-43.5 0,-17 6.55,-31.57 19.75,-43.63 13.09,-12.05 28.7,-18.14 46.95,-18.14 18.14,0 33.75,6.09 46.72,18.14 12.97,12.06 19.52,26.63 19.52,43.63z"/>
  <path id="_8" class="fil4" d="M7386.25 2153.78l-211.45 0 0 -24.79c5.86,-0.46 11.48,-1.04 16.98,-1.73 5.51,-0.69 10.45,-1.72 14.7,-3.33 7.23,-2.64 12.16,-6.54 14.69,-11.59 2.64,-5.05 3.91,-11.71 3.91,-19.97l0 -372.17c0,-8.5 -1.73,-16.42 -5.17,-23.65 -3.45,-7.23 -8.15,-12.86 -13.89,-16.64 -4.47,-2.87 -11.25,-5.74 -20.32,-8.38 -9.07,-2.64 -17.11,-4.25 -23.99,-4.7l0 -24.8 169.2 -8.95 5.05 5.4 0 449.52c0,8.27 1.5,15.04 4.37,20.1 2.97,5.17 7.69,9.18 14.23,12.16 4.47,1.95 9.19,3.78 14.12,5.4 4.93,1.49 10.79,2.64 17.56,3.33l0 24.79z"/>
  <path id="_9" class="fil4" d="M7623.3 2153.78l-211.45 0 0 -24.79c5.86,-0.46 11.48,-1.04 16.98,-1.73 5.51,-0.69 10.45,-1.72 14.7,-3.33 7.23,-2.64 12.16,-6.54 14.69,-11.59 2.64,-5.05 3.91,-11.71 3.91,-19.97l0 -372.17c0,-8.5 -1.73,-16.42 -5.17,-23.65 -3.45,-7.23 -8.15,-12.86 -13.89,-16.64 -4.47,-2.87 -11.25,-5.74 -20.32,-8.38 -9.07,-2.64 -17.11,-4.25 -23.99,-4.7l0 -24.8 169.2 -8.95 5.05 5.4 0 449.52c0,8.27 1.5,15.04 4.37,20.1 2.97,5.17 7.69,9.18 14.23,12.16 4.47,1.95 9.19,3.78 14.12,5.4 4.93,1.49 10.79,2.64 17.56,3.33l0 24.79z"/>
  <path id="_10" class="fil4" d="M7810.98 2164.8c-21.81,0 -43.05,-3.22 -63.72,-9.54 -20.78,-6.31 -36.85,-13.09 -48.32,-20.2l-10.1 22.84 -26.17 0 -4.14 -125.35 24.8 0c3.33,10.11 8.95,21.47 16.75,34.09 7.81,12.64 16.76,23.99 26.75,33.98 10.56,10.11 22.5,18.6 36.04,25.49 13.55,7 28.02,10.45 43.4,10.45 20.32,0 35.47,-4.02 45.34,-11.95 9.99,-7.92 14.93,-20.2 14.93,-36.85 0,-8.95 -2.19,-16.29 -6.66,-22.15 -4.47,-5.86 -10.68,-10.91 -18.48,-15.15 -8.72,-4.49 -18.37,-8.27 -28.7,-11.37 -10.45,-3.22 -23.3,-7 -38.45,-11.48 -15.27,-4.47 -28.24,-9.06 -39.14,-13.65 -10.79,-4.6 -22.05,-11.83 -33.63,-21.58 -10.1,-8.84 -18.14,-19.29 -24.22,-31.68 -6.09,-12.28 -9.06,-26.98 -9.06,-43.96 0,-31.68 13.31,-57.17 39.82,-76.69 26.52,-19.51 61.31,-29.27 104.35,-29.27 20.43,0 39.14,2.08 56.26,6.2 17.21,4.14 31.57,8.73 43.27,13.66l7 -19.87 25.49 0 5.51 114.34 -23.42 0c-7.81,-23.19 -21.35,-43.28 -40.41,-60.15 -19.17,-16.88 -39.72,-25.26 -61.75,-25.26 -17.23,0 -30.88,3.56 -40.76,10.79 -9.87,7.13 -14.8,17.11 -14.8,29.85 0,17.1 7.23,29.39 21.7,36.97 14.46,7.69 34.66,14.8 60.72,21.57 40.07,10.33 69.46,24.34 88.05,42.13 18.6,17.91 27.89,40.53 27.89,68.07 0,36.85 -14.46,65.32 -43.27,85.4 -28.81,20.21 -66.47,30.31 -112.84,30.31z"/>
  <path id="_11" class="fil4" d="M8769.86 2153.78l-258.28 0 0 -26.17c5.63,-0.46 13.88,-1.15 24.67,-2.06 10.79,-0.81 18.25,-2.18 22.28,-4.02 8.27,-3.32 14,-7.81 17.21,-13.32 3.1,-5.5 4.7,-12.51 4.7,-21l0 -164.85 -204.55 0 0 161.05c0,7.69 1.6,14.57 4.93,20.55 3.22,6.09 8.83,10.79 16.64,14.24 4.37,1.72 11.6,3.67 21.93,5.73 10.45,1.96 18.83,3.22 25.37,3.68l0 26.17 -258.28 0 0 -26.17c5.63,-0.23 13.89,-0.92 24.8,-2.18 10.91,-1.27 18.94,-2.76 23.88,-4.59 8.04,-2.87 13.65,-7.36 16.87,-13.2 3.1,-5.97 4.7,-12.97 4.7,-21.12l0 -337.73c0,-7.92 -1.37,-14.46 -4.24,-19.85 -2.76,-5.4 -8.61,-10.1 -17.33,-14.12 -6.55,-2.99 -15.16,-5.63 -25.72,-7.92 -10.55,-2.41 -18.25,-3.78 -22.96,-4.24l0 -26.17 258.28 0 0 26.17c-7,0.46 -15.27,1.6 -25.02,3.33 -9.64,1.83 -17.11,3.55 -22.28,5.05 -8.72,2.99 -14.57,7.58 -17.33,14 -2.87,6.32 -4.24,13.09 -4.24,20.33l0 142.57 204.55 0 0 -139.25c0,-7.81 -1.49,-14.46 -4.36,-19.85 -2.99,-5.28 -8.84,-9.99 -17.56,-14.12 -5.86,-2.64 -13.66,-5.17 -23.53,-7.46 -9.77,-2.41 -17.57,-3.9 -23.42,-4.59l0 -26.17 258.28 0 0 26.17c-7.24,0.46 -15.27,1.37 -24.34,2.87 -8.96,1.49 -17.1,3.33 -24.34,5.51 -8.49,2.99 -14.23,7.58 -17.21,13.77 -2.87,6.32 -4.36,13.2 -4.36,20.56l0 338.18c0,8.04 1.49,14.92 4.36,20.55 2.99,5.63 8.73,10.33 17.21,14.12 5.4,2.18 13.32,4.24 23.53,6.08 10.22,1.73 18.6,2.87 25.15,3.33l0 26.17z"/>
  <path id="_12" class="fil4" d="M9250.72 2146.89l-160.24 9.64 -5.05 -4.7 0 -43.85 -2.06 0c-7.59,6.88 -15.05,13.65 -22.28,20.32 -7.34,6.65 -15.96,12.63 -26.06,18.02 -11.37,5.97 -22.26,10.45 -32.36,13.43 -10.23,2.87 -25.03,4.36 -44.54,4.36 -33.86,0 -59.7,-10.22 -77.72,-30.53 -18.02,-20.43 -27.08,-49.24 -27.08,-86.33l0 -151.18c0,-8.73 -1.73,-15.84 -5.05,-21.35 -3.33,-5.51 -7.81,-10.33 -13.32,-14.57 -4.47,-3.45 -10.22,-5.74 -17.34,-7.24 -7.11,-1.49 -13.65,-2.41 -19.39,-2.87l0 -24.79 162.32 -8.96 3.67 5.05 0 223.51c0,23.07 4.49,40.17 13.32,51.19 8.84,10.91 21.01,16.42 36.5,16.42 15.96,0 30.31,-4.14 42.94,-12.39 12.74,-8.27 21.92,-17.11 27.78,-26.52l0 -180.92c0,-7.58 -1.49,-14.34 -4.36,-20.43 -2.87,-6.09 -7.13,-11.02 -12.63,-14.8 -4.02,-2.64 -9.77,-4.49 -17.23,-5.28 -7.58,-0.92 -15.15,-1.61 -22.96,-2.08l0 -24.79 163 -8.96 5.06 5.05 0 259.44c0,7.81 1.6,14.46 4.7,19.97 3.1,5.51 7.69,10.1 13.66,14.01 4.24,2.64 9.75,4.47 16.52,5.51 6.78,1.03 13.55,1.6 20.2,1.83l0 24.8z"/>
  <path id="_13" class="fil4" d="M9679.7 1989.28c0,50.51 -16.65,92.41 -49.94,125.7 -33.29,33.17 -75.53,49.82 -126.74,49.82 -19.74,0 -36.73,-1.38 -50.96,-4.25 -14.24,-2.76 -26.29,-6.19 -36.16,-10.22 -10.33,-4.24 -18.6,-8.49 -24.69,-12.63 -6.19,-4.13 -11.13,-7.58 -14.69,-10.33l-48.1 43.62 -19.97 -7.69c1.15,-16.41 2.18,-34.21 2.99,-53.26 0.81,-19.17 1.14,-45 1.14,-77.49l0 -314.64c0,-8.5 -1.72,-16.42 -5.17,-23.65 -3.55,-7.34 -8.14,-12.86 -14,-16.64 -4.25,-2.76 -10.56,-5.06 -18.71,-7.13 -8.15,-1.95 -15.73,-3.22 -22.73,-3.67l0 -24.8 166.45 -8.95 5.05 5.4 0 218.45 2.06 0c16.3,-15.96 33.17,-27.67 50.4,-35.02 17.21,-7.46 34.56,-11.14 51.77,-11.14 47.07,0 84.15,16.07 111.35,48.22 27.1,32.03 40.64,75.53 40.64,130.29zm-120.54 4.02c0,-17.11 -1.27,-33.64 -3.91,-49.49 -2.53,-15.83 -6.88,-29.84 -12.97,-41.89 -5.96,-12.18 -14,-21.93 -23.87,-29.27 -9.88,-7.23 -22.05,-10.91 -36.73,-10.91 -13.66,0 -25.03,2.29 -33.98,6.77 -8.96,4.49 -17,11.14 -24.22,19.87l0 196.29c1.37,4.49 3.9,10.34 7.58,17.69 3.68,7.34 7.46,12.97 11.25,16.98 5.4,5.86 11.13,10.33 17.21,13.32 6.09,3.1 14.57,4.59 25.6,4.59 22.85,0 40.99,-12.51 54.19,-37.65 13.19,-25.03 19.85,-60.5 19.85,-106.3z"/>
  <path class="fil5" d="M3838.83 2652.2l251.97 0 0 18.94 -251.97 0 0 -18.94zm65.14 50.79l0 26.12 124.26 0 0 -26.12 -124.26 0zm-21.53 -15.77l168.17 0 0 57.67 -168.17 0 0 -57.67zm-33.01 73.75l225.29 0 0 18.08 -204.61 0 0 107.04 -20.67 0 0 -125.12zm210.65 0l21.52 0 0 102.46c0,5.36 -0.76,9.33 -2.29,11.91 -1.52,2.58 -4.21,4.64 -8.04,6.17 -3.82,1.34 -8.89,2.11 -15.21,2.29 -6.31,0.2 -14.06,0.29 -23.24,0.29 -0.58,-2.49 -1.53,-5.26 -2.87,-8.32 -1.34,-3.06 -2.67,-5.74 -4.01,-8.04 4.21,0.2 8.32,0.29 12.34,0.29 4.02,0 7.55,0 10.62,0 3.06,0 5.17,0 6.32,0 3.25,-0.18 4.88,-1.63 4.88,-4.3l0 -102.74zm-111.65 -134.59l20.67 -4.88c2.67,5.93 5.3,12.53 7.89,19.8 2.58,7.28 4.45,13.2 5.59,17.79l-22.09 6.61c-1.15,-5.17 -2.92,-11.48 -5.32,-18.94 -2.39,-7.46 -4.64,-14.25 -6.75,-20.37zm-34.43 169.61l110.48 0 0 59.11 -110.48 0 0 -16.07 90.97 0 0 -26.97 -90.97 0 0 -16.07zm-11.48 0l20.37 0 0 73.47 -20.37 0 0 -73.47z"/>
  <path id="_1_273" class="fil5" d="M4467.32 2672.57l0.28 15.78 142.93 0.29 -0.29 -16.07 -142.91 0zm0 -28.12l0.28 15.5 142.93 0.29 -0.29 -15.78 -142.91 0zm-20.39 -12.63l184.83 -0.29 0 70.02 -185.1 -0.29 0.28 -69.45zm14.93 153.25l0 16.65 157.26 0 -0.28 -16.65 -156.98 0zm0 -28.99l0 16.36 157.26 0 -0.28 -16.07 -156.98 -0.29zm-20.1 -13.2l198.31 0 0.29 71.75 -198.87 0.29 0.28 -72.04zm86.67 4.88l20.95 0 0 123.69 -20.95 -0.29 0 -123.41zm-117.38 -34.15l257.14 0 0 16.36 -257.43 0 0.29 -16.36zm22.39 117.1l212.94 0 0.29 14.92 -213.23 0.29 0 -15.21zm-24.11 31.85l260.58 0 -0.29 16.65 -260.29 0 0 -16.65z"/>
  <path id="_2_274" class="fil5" d="M5178.44 2667.41l158.13 0 0 20.09 -158.13 0 0 -20.09zm5.74 63.43l126.57 0 0 19.8 -126.57 0 0 -19.8zm61.99 -108.49l21.24 0 0 119.68 -21.24 0 0 -119.68zm-34.14 122.83c10.9,30.23 27.74,56.06 50.5,77.49 22.77,21.42 50.89,36.54 84.38,45.34 -1.53,1.53 -3.21,3.4 -5.03,5.6 -1.81,2.19 -3.49,4.44 -5.02,6.75 -1.53,2.29 -2.87,4.39 -4.02,6.31 -34.44,-10.33 -63.28,-27.07 -86.52,-50.22 -23.24,-23.14 -41.09,-51.65 -53.52,-85.52l19.23 -5.74zm96.99 -14.34l4.02 0 4.01 -0.86 13.78 6.03c-6.12,20.47 -14.45,38.83 -24.96,55.1 -10.53,16.26 -22.73,30.57 -36.6,42.9 -13.87,12.34 -28.88,22.82 -45.06,31.42 -16.17,8.61 -33.05,15.5 -50.65,20.66 -0.76,-1.91 -1.76,-4.06 -3.01,-6.46 -1.25,-2.39 -2.63,-4.78 -4.16,-7.17 -1.53,-2.39 -3.06,-4.25 -4.59,-5.59 16.45,-4.4 32.38,-10.43 47.78,-18.08 15.4,-7.66 29.66,-16.98 42.76,-27.98 13.1,-11 24.54,-23.73 34.29,-38.18 9.75,-14.44 17.21,-30.46 22.38,-48.07l0 -3.72zm-228.43 43.33c8.04,-1.91 17.12,-4.25 27.26,-7.03 10.15,-2.77 20.9,-5.73 32.3,-8.89 11.38,-3.16 22.71,-6.36 34,-9.62l2.87 19.8c-15.69,4.78 -31.42,9.48 -47.2,14.07 -15.78,4.59 -30.09,8.8 -42.9,12.63l-6.32 -20.95zm3.45 -93.84l90.11 0 0 20.37 -90.11 0 0 -20.37zm37.01 -57.97l21.24 0 0 237.91c0,6.12 -0.76,10.82 -2.29,14.07 -1.53,3.25 -4.21,5.74 -8.04,7.46 -3.83,1.72 -8.84,2.82 -15.06,3.3 -6.23,0.48 -14.31,0.62 -24.26,0.44 -0.38,-2.69 -1.25,-5.89 -2.58,-9.62 -1.34,-3.74 -2.67,-7.13 -4.01,-10.19 6.7,0.2 12.82,0.29 18.37,0.29 5.55,0 9.28,0 11.2,0 3.63,0 5.44,-1.91 5.44,-5.74l0 -237.91z"/>
  <path id="_3_275" class="fil5" d="M5385.65 2724.52l90.97 0 0 18.37 -70.89 0 0 143.2 -20.09 0 0 -161.57zm81.22 0l21.24 0 0 136.9c0,5.55 -0.67,9.89 -2.02,13.05 -1.34,3.16 -4.01,5.7 -8.02,7.61 -4.02,1.53 -9.19,2.49 -15.5,2.87 -6.32,0.38 -13.97,0.58 -22.97,0.58 -0.56,-2.87 -1.52,-6.23 -2.87,-10.05 -1.34,-3.82 -2.77,-7.08 -4.3,-9.75 6.7,0.2 12.82,0.33 18.37,0.43 5.55,0.1 9.37,0.06 11.48,-0.14 1.91,0 3.15,-0.33 3.72,-1 0.58,-0.67 0.86,-1.96 0.86,-3.87l0 -136.61zm-71.46 43.05l82.66 0 0 16.93 -82.66 0 0 -16.93zm0 43.04l82.66 0 0 16.94 -82.66 0 0 -16.94zm119.67 -187.69l21.24 0 0 95c0,4.59 0.91,7.55 2.73,8.89 1.81,1.35 5.97,2.02 12.48,2.02 1.53,0 4.36,0 8.47,0 4.1,0 8.66,0 13.63,0 4.97,0 9.66,0 14.07,0 4.39,0 7.55,0 9.47,0 3.83,0 6.7,-0.82 8.61,-2.44 1.91,-1.63 3.3,-4.78 4.16,-9.47 0.85,-4.69 1.48,-11.82 1.86,-21.39 2.11,1.73 5.07,3.36 8.9,4.88 3.83,1.53 7.17,2.69 10.04,3.45 -0.58,11.67 -1.91,20.71 -4.01,27.12 -2.11,6.41 -5.32,10.91 -9.62,13.49 -4.31,2.58 -10.28,3.87 -17.94,3.87 -1.14,0 -3.39,0 -6.75,0 -3.34,0 -7.22,0 -11.62,0 -4.39,0 -8.75,0 -13.05,0 -4.31,0 -8.08,0 -11.33,0 -3.26,0 -5.45,0 -6.61,0 -9.18,0 -16.26,-0.91 -21.24,-2.72 -4.97,-1.82 -8.46,-4.93 -10.47,-9.33 -2.01,-4.4 -3.02,-10.43 -3.02,-18.08l0 -95.28zm88.11 20.95l14.34 16.07c-8.22,3.63 -17.32,7.32 -27.26,11.05 -9.95,3.74 -20.19,7.23 -30.72,10.48 -10.52,3.25 -20.75,6.31 -30.7,9.18 -0.38,-2.1 -1.2,-4.64 -2.43,-7.6 -1.25,-2.97 -2.54,-5.5 -3.87,-7.61 9.37,-2.87 19.04,-6.12 28.98,-9.75 9.95,-3.63 19.43,-7.32 28.42,-11.05 8.98,-3.74 16.73,-7.32 23.24,-10.77zm-88.11 112.5l21.24 0 0 97.29c0,4.59 1,7.55 3.02,8.89 2.01,1.34 6.35,2.02 13.05,2.02 1.53,0 4.4,0 8.61,0 4.21,0 8.84,0 13.92,0 5.07,0 9.8,0 14.21,0 4.4,0 7.66,0 9.75,0 4.02,0 7.03,-0.86 9.04,-2.58 2.02,-1.73 3.45,-5.32 4.31,-10.77 0.85,-5.45 1.48,-13.63 1.86,-24.54 2.49,1.72 5.6,3.34 9.33,4.88 3.74,1.53 7.03,2.69 9.9,3.45 -0.76,12.82 -2.2,22.76 -4.3,29.84 -2.11,7.08 -5.36,12.01 -9.77,14.78 -4.39,2.78 -10.61,4.16 -18.64,4.16 -1.35,0 -3.69,0 -7.03,0 -3.36,0 -7.23,0 -11.62,0 -4.4,0 -8.81,0 -13.2,0 -4.4,0 -8.28,0 -11.62,0 -3.36,0 -5.6,0 -6.75,0 -9.19,0 -16.36,-0.85 -21.53,-2.58 -5.17,-1.72 -8.75,-4.78 -10.76,-9.18 -2.01,-4.4 -3.02,-10.62 -3.02,-18.66l0 -97zm91.55 15.5l14.07 16.07c-7.84,4.59 -16.94,8.95 -27.27,13.05 -10.33,4.12 -21.04,7.94 -32.13,11.48 -11.1,3.54 -21.81,6.75 -32.15,9.62 -0.58,-2.11 -1.53,-4.69 -2.87,-7.75 -1.34,-3.07 -2.58,-5.65 -3.72,-7.75 9.94,-2.87 20.13,-6.23 30.55,-10.04 10.43,-3.83 20.33,-7.85 29.7,-12.06 9.39,-4.21 17.32,-8.42 23.82,-12.63zm-160.13 -125.41l17.5 -6.88c5.17,6.31 10.19,13.2 15.07,20.66 4.88,7.46 9.27,14.83 13.2,22.09 3.92,7.28 6.84,13.78 8.75,19.52l-18.66 8.61c-2.11,-5.94 -5.03,-12.58 -8.75,-19.95 -3.74,-7.37 -7.99,-14.87 -12.78,-22.53 -4.78,-7.66 -9.56,-14.83 -14.34,-21.53zm-65.43 58.26c-0.38,-1.53 -1,-3.59 -1.87,-6.17 -0.86,-2.58 -1.78,-5.17 -2.72,-7.75 -0.96,-2.58 -1.91,-4.83 -2.87,-6.75 2.29,-0.58 4.5,-1.82 6.6,-3.74 2.11,-1.91 4.4,-4.39 6.88,-7.46 1.73,-2.1 4.36,-5.79 7.9,-11.05 3.54,-5.27 7.32,-11.39 11.33,-18.37 4.02,-6.99 7.56,-14.21 10.62,-21.66l22.38 6.88c-4.21,7.84 -8.8,15.69 -13.77,23.53 -4.98,7.84 -10.04,15.25 -15.21,22.24 -5.17,6.99 -10.34,13.16 -15.51,18.51l0 0.29c0,0 -0.71,0.38 -2.14,1.15 -1.44,0.76 -3.07,1.72 -4.88,2.87 -1.82,1.14 -3.4,2.39 -4.74,3.72 -1.34,1.34 -2.01,2.58 -2.01,3.74zm0 0l-0.58 -14.92 11.2 -6.61 93.27 -5.45c-0.58,2.49 -1,5.41 -1.29,8.75 -0.29,3.36 -0.43,6.08 -0.43,8.19 -17.03,1.14 -31.34,2.14 -42.9,3.01 -11.58,0.86 -21.01,1.67 -28.27,2.44 -7.28,0.76 -12.91,1.38 -16.94,1.86 -4.01,0.48 -7.08,0.91 -9.18,1.29 -2.11,0.39 -3.74,0.86 -4.88,1.44z"/>
  <path id="_4_276" class="fil5" d="M5703.91 2708.17l166.16 -0.29 0.29 20.37 -166.16 0.29 -0.29 -20.37zm0 68l166.16 -0.28 0.29 20.37 -166.16 0.29 -0.29 -20.39zm0 68.3l166.16 -0.29 0.29 20.95 -166.16 0 -0.29 -20.66zm-14.63 -204.32l194.86 0 -0.29 244.51 -22.09 0 0 -223.56 -150.96 0.28 -0.29 223.28 -21.23 0 0 -244.51z"/>
  <path id="_5_277" class="fil5" d="M6591.83 2735.13l173.34 0 0 19.52 -173.34 0 0 -19.52zm120.54 12.06l23.53 1.43c-4.78,26.78 -12.58,49.16 -23.39,67.15 -10.8,17.99 -25.2,32.62 -43.19,43.91 -17.99,11.29 -39.99,20.28 -66,26.98 -0.58,-1.53 -1.49,-3.49 -2.73,-5.88 -1.25,-2.4 -2.58,-4.74 -4.01,-7.03 -1.44,-2.29 -2.73,-4.21 -3.87,-5.74 24.29,-5.35 44.71,-12.96 61.27,-22.82 16.55,-9.85 29.6,-22.71 39.17,-38.59 9.57,-15.88 15.98,-35.69 19.23,-59.4zm-102.74 55.96l14.35 -13.78c11.67,5.56 24.05,11.73 37.16,18.52 13.11,6.79 25.97,13.87 38.6,21.24 12.63,7.36 24.49,14.59 35.58,21.66 11.09,7.08 20.57,13.58 28.41,19.51l-15.5 16.65c-7.46,-5.93 -16.59,-12.49 -27.41,-19.66 -10.82,-7.17 -22.53,-14.59 -35.16,-22.24 -12.63,-7.66 -25.45,-15.07 -38.45,-22.24 -13.02,-7.17 -25.54,-13.73 -37.6,-19.66zm50.51 -178.22l21.53 -4.01c2.86,7.08 5.55,14.68 8.02,22.82 2.49,8.13 4.4,15.16 5.74,21.09l-22.38 4.88c-0.96,-6.12 -2.73,-13.34 -5.32,-21.66 -2.58,-8.32 -5.12,-16.03 -7.6,-23.11zm-50.51 178.22c4.4,-7.08 8.86,-15.25 13.35,-24.54 4.49,-9.28 8.94,-18.99 13.34,-29.12 4.4,-10.15 8.51,-20.33 12.34,-30.57 3.83,-10.24 7.08,-19.95 9.75,-29.12l21.81 3.15c-3.83,13.2 -8.61,27.03 -14.34,41.47 -5.74,14.45 -11.73,28.32 -17.94,41.61 -6.21,13.29 -12.11,24.92 -17.65,34.87l-20.66 -7.75zm-9.75 -144.07l161.28 0 0 55.68 -20.66 0 0 -36.45 -120.25 0 0 36.73 -20.37 0 0 -55.97zm-101.3 124.84c8.22,-2.29 17.59,-4.92 28.12,-7.89 10.53,-2.96 21.62,-6.26 33.29,-9.9 11.67,-3.63 23.44,-7.17 35.31,-10.62l2.87 19.23c-16.27,5.36 -32.72,10.67 -49.37,15.92 -16.64,5.27 -31.66,10 -45.05,14.21l-5.17 -20.95zm3.44 -103.89l90.41 0 0 20.37 -90.41 0 0 -20.37zm38.75 -57.68l20.66 0 0 239.06c0,5.93 -0.77,10.52 -2.31,13.77 -1.52,3.26 -4.1,5.74 -7.75,7.47 -3.63,1.52 -8.56,2.53 -14.77,3.01 -6.23,0.47 -14.02,0.71 -23.39,0.71 -0.38,-2.67 -1.2,-5.88 -2.43,-9.62 -1.25,-3.72 -2.64,-7.02 -4.16,-9.89 6.5,0.18 12.43,0.29 17.79,0.29 5.35,0 8.99,-0.1 10.91,-0.29 1.91,0 3.3,-0.39 4.16,-1.15 0.85,-0.76 1.29,-2.2 1.29,-4.3l0 -239.06z"/>
  <path id="_6_278" class="fil5" d="M6830.6 2730.83l164.44 0 0 21.24 -164.44 0 0 -21.24zm156.98 0l22.39 0c0,0 0,0.67 0,2.01 0,1.34 0,2.82 0,4.45 0,1.63 -0.1,2.92 -0.29,3.87 -1.15,22 -2.25,40.75 -3.3,56.24 -1.06,15.5 -2.25,28.36 -3.6,38.6 -1.34,10.24 -2.92,18.28 -4.73,24.11 -1.82,5.83 -3.98,10.18 -6.46,13.05 -3.07,3.64 -6.32,6.12 -9.77,7.46 -3.44,1.35 -7.64,2.2 -12.63,2.58 -4.78,0.39 -11.29,0.53 -19.51,0.44 -8.23,-0.1 -16.83,-0.44 -25.83,-1 -0.39,-3.25 -1.15,-6.89 -2.29,-10.91 -1.15,-4.02 -2.78,-7.56 -4.89,-10.62 9.39,0.76 18.08,1.25 26.12,1.43 8.04,0.2 13.69,0.29 16.94,0.29 5.74,0 9.85,-1.14 12.34,-3.44 2.69,-2.69 4.92,-8.43 6.75,-17.23 1.82,-8.8 3.45,-21.86 4.88,-39.17 1.44,-17.32 2.73,-40.03 3.87,-68.17l0 -4.01zm-117.66 -102.74l22.97 6.32c-6.51,16.07 -14.21,31.42 -23.11,46.06 -8.9,14.63 -18.56,28.12 -28.99,40.46 -10.42,12.34 -21.38,23.11 -32.86,32.28 -1.14,-1.53 -2.87,-3.34 -5.17,-5.45 -2.29,-2.1 -4.64,-4.16 -7.03,-6.17 -2.39,-2.01 -4.45,-3.68 -6.17,-5.02 11.48,-8.23 22.29,-17.99 32.43,-29.27 10.13,-11.29 19.28,-23.68 27.41,-37.16 8.13,-13.49 14.97,-27.51 20.51,-42.05zm100.16 -0.58c4.59,9.57 10.04,19.43 16.36,29.56 6.31,10.15 13.14,19.9 20.51,29.27 7.37,9.37 14.98,17.99 22.82,25.83 7.84,7.84 15.5,14.63 22.96,20.37 -1.72,1.34 -3.68,3.07 -5.88,5.17 -2.2,2.11 -4.3,4.31 -6.32,6.61 -2.01,2.29 -3.77,4.39 -5.3,6.31 -7.46,-6.5 -15.12,-14.16 -22.96,-22.96 -7.85,-8.8 -15.54,-18.28 -23.11,-28.41 -7.55,-10.15 -14.68,-20.66 -21.38,-31.57 -6.7,-10.91 -12.53,-21.62 -17.5,-32.15l19.8 -8.04zm-82.36 109.35l22.67 0c-1.72,15.68 -4.25,30.94 -7.61,45.76 -3.34,14.83 -8.6,28.85 -15.78,42.05 -7.17,13.2 -16.97,25.11 -29.41,35.73 -12.43,10.62 -28.7,19.55 -48.78,26.83 -0.77,-1.91 -1.91,-3.97 -3.45,-6.17 -1.53,-2.2 -3.16,-4.4 -4.88,-6.61 -1.72,-2.2 -3.34,-4.06 -4.88,-5.59 18.75,-6.12 33.86,-13.87 45.34,-23.24 11.48,-9.37 20.39,-19.95 26.69,-31.72 6.32,-11.76 10.86,-24.14 13.64,-37.16 2.77,-13.01 4.92,-26.3 6.46,-39.88z"/>
  <path id="_7_279" class="fil5" d="M8079.55 2774.74c10.91,-3.63 23.96,-8.23 39.17,-13.78 15.21,-5.55 30.57,-11.38 46.06,-17.5l3.74 19.52c-14.35,5.55 -28.8,11.18 -43.34,16.93 -14.54,5.74 -27.83,10.82 -39.88,15.21l-5.74 -20.37zm2.01 -94.42l84.09 0 0 20.09 -84.09 0 0 -20.09zm34.44 -57.97l20.37 0 0 237.33c0,5.74 -0.67,10.24 -2.01,13.49 -1.34,3.25 -3.74,5.83 -7.18,7.75 -3.44,1.73 -7.93,2.87 -13.48,3.45 -5.56,0.58 -12.53,0.76 -20.95,0.58 -0.2,-2.69 -0.86,-6.03 -2.02,-10.04 -1.14,-4.02 -2.48,-7.56 -4.01,-10.62 5.55,0.18 10.62,0.29 15.21,0.29 4.59,0 7.75,-0.1 9.47,-0.29 1.53,0 2.69,-0.29 3.45,-0.86 0.77,-0.58 1.15,-1.82 1.15,-3.74l0 -237.33zm111.06 10.33l15.5 14.35c-7.84,4.21 -16.7,8.08 -26.54,11.62 -9.86,3.54 -19.37,6.55 -28.56,9.04 -0.38,-2.11 -1.29,-4.54 -2.72,-7.32 -1.44,-2.77 -2.73,-5.12 -3.87,-7.02 8.42,-2.69 16.88,-5.94 25.4,-9.77 8.51,-3.83 15.45,-7.46 20.8,-10.91zm-46.2 20.67l18.66 6.02 0 92.99 -18.66 0 0 -99.01zm6.31 81.21l124.27 0 0 -70.88 -35.59 0 0 -17.8 55.1 0 0 106.48 -143.78 0 0 -17.8zm2.02 -43.91l41.61 0 0 16.65 -41.61 0 0 -16.65zm87.81 0l43.91 0 0 16.36 -43.91 0 0 -16.36zm-32.43 -68.58l19.81 0 0 166.16 -19.81 0 0 -166.16zm-67.44 158.12l138.04 0 0 18.37 -138.04 0 0 -18.37zm132.02 0l4.01 0 3.74 -0.86 12.91 6.32c-6.7,15.5 -15.74,28.94 -27.12,40.32 -11.39,11.38 -24.35,21.09 -38.89,29.12 -14.54,8.04 -30.19,14.64 -46.92,19.81 -16.74,5.17 -33.92,9.18 -51.52,12.05 -0.96,-2.49 -2.34,-5.5 -4.16,-9.04 -1.82,-3.54 -3.69,-6.46 -5.59,-8.75 16.64,-2.29 32.85,-5.65 48.63,-10.04 15.78,-4.4 30.57,-10.04 44.34,-16.94 13.78,-6.88 25.87,-15.21 36.31,-24.96 10.42,-9.77 18.51,-21.05 24.25,-33.86l0 -3.16zm-103.89 12.34c8.22,13.2 19.31,24.87 33.29,35.02 13.96,10.13 29.99,18.6 48.07,25.4 18.08,6.79 37.36,11.81 57.82,15.06 -1.53,1.34 -3.1,3.11 -4.74,5.32 -1.63,2.2 -3.1,4.39 -4.44,6.6 -1.34,2.2 -2.58,4.16 -3.74,5.88 -20.86,-4.21 -40.46,-10.13 -58.83,-17.79 -18.37,-7.64 -34.77,-17.21 -49.22,-28.7 -14.45,-11.47 -26.36,-24.78 -35.73,-39.88l17.51 -6.89z"/>
  <path id="_8_280" class="fil5" d="M8487.64 2622.07l22.39 0 0 80.64 -22.39 0 0 -80.64zm58.55 147.22l15.21 -9.75c6.88,5.55 14.07,11.67 21.53,18.37 7.46,6.7 14.49,13.34 21.09,19.95 6.61,6.6 11.91,12.58 15.93,17.93l-16.65 11.48c-3.63,-5.36 -8.66,-11.44 -15.07,-18.23 -6.41,-6.79 -13.29,-13.67 -20.66,-20.66 -7.37,-6.98 -14.49,-13.34 -21.38,-19.08zm-9.19 64.28l16.36 -10.61c7.84,4.01 16.27,8.65 25.25,13.92 8.99,5.26 17.56,10.56 25.69,15.92 8.13,5.36 14.87,10.24 20.24,14.63l-17.5 12.64c-4.98,-4.4 -11.39,-9.33 -19.23,-14.78 -7.84,-5.45 -16.21,-11 -25.11,-16.65 -8.9,-5.64 -17.46,-10.67 -25.69,-15.07zm-98.43 -9.18l19.52 7.75c-5.94,5.93 -12.82,11.91 -20.66,17.94 -7.85,6.02 -15.89,11.67 -24.11,16.93 -8.23,5.26 -16.17,9.9 -23.82,13.92 -1.15,-1.34 -2.73,-2.92 -4.74,-4.73 -2.01,-1.82 -4.06,-3.64 -6.17,-5.45 -2.1,-1.82 -4.01,-3.21 -5.74,-4.16 11.86,-5.36 23.73,-11.82 35.59,-19.37 11.85,-7.56 21.91,-15.16 30.13,-22.82zm-61.41 -176.78l243.06 0 0 18.93 -243.06 0 0 -18.93zm-2.87 45.62l249.67 0 0 53.96 -21.24 0 0 -35.31 -208.06 0 0 35.31 -20.37 0 0 -53.96zm16.07 126.28c-0.2,-1.34 -0.62,-3.16 -1.29,-5.45 -0.68,-2.29 -1.4,-4.69 -2.16,-7.17 -0.76,-2.49 -1.53,-4.6 -2.29,-6.32 4.78,-0.58 10.33,-1.82 16.64,-3.72 6.32,-1.91 13.69,-4.6 22.1,-8.04 4.59,-1.73 11.53,-4.6 20.8,-8.61 9.28,-4.02 19.85,-8.86 31.72,-14.49 11.86,-5.65 24.11,-11.91 36.73,-18.79 12.63,-6.89 24.58,-13.97 35.87,-21.24l15.5 13.2c-25.83,15.68 -52.32,29.51 -79.5,41.46 -27.16,11.96 -54.04,22.15 -80.64,30.57l0 0.86c0,0 -0.67,0.24 -2.01,0.71 -1.34,0.48 -2.92,1.1 -4.74,1.87 -1.81,0.76 -3.39,1.58 -4.73,2.43 -1.34,0.86 -2.01,1.78 -2.01,2.73zm0 0l-0.29 -13.49 13.49 -6.88 179.36 -9.77c0.38,2.49 0.91,5.22 1.58,8.19 0.67,2.96 1.38,5.3 2.14,7.03 -28.5,1.72 -52.95,3.25 -73.32,4.59 -20.37,1.34 -37.5,2.49 -51.37,3.44 -13.87,0.96 -25.16,1.73 -33.86,2.31 -8.71,0.56 -15.55,1.14 -20.52,1.72 -4.97,0.58 -8.71,1.05 -11.2,1.43 -2.48,0.39 -4.5,0.86 -6.02,1.44zm20.66 -47.64c-0.2,-1.34 -0.67,-3.16 -1.44,-5.45 -0.76,-2.29 -1.48,-4.68 -2.14,-7.17 -0.68,-2.49 -1.4,-4.59 -2.16,-6.32 2.87,-0.18 6.03,-0.96 9.47,-2.29 3.45,-1.34 7.17,-3.06 11.2,-5.17 2.29,-1.14 5.7,-2.96 10.19,-5.45 4.49,-2.48 9.65,-5.45 15.5,-8.89 5.83,-3.45 11.76,-7.28 17.79,-11.48 6.02,-4.21 11.62,-8.51 16.79,-12.91l15.5 11.77c-12.24,8.98 -25.2,17.21 -38.89,24.67 -13.67,7.46 -27.3,13.87 -40.9,19.23l0 0.85c0,0 -0.9,0.44 -2.72,1.29 -1.82,0.86 -3.63,1.96 -5.45,3.31 -1.82,1.34 -2.72,2.67 -2.72,4.01zm0 0l-0.29 -12.34 10.62 -5.45 98.72 -5.45c-0.58,2.29 -1.25,4.83 -2.01,7.61 -0.77,2.77 -1.25,5.02 -1.44,6.75 -17.99,0.95 -33,1.86 -45.06,2.72 -12.05,0.86 -21.8,1.58 -29.26,2.16 -7.46,0.56 -13.25,1.1 -17.36,1.58 -4.12,0.47 -7.17,0.85 -9.19,1.14 -2.01,0.29 -3.59,0.71 -4.73,1.29zm81.78 29.27l20.95 0 0 59.98c0,5.74 -0.81,10.18 -2.43,13.34 -1.63,3.16 -4.83,5.5 -9.62,7.03 -4.59,1.72 -10.53,2.73 -17.79,3.01 -7.28,0.29 -16.17,0.44 -26.69,0.44 -0.58,-3.07 -1.63,-6.46 -3.16,-10.19 -1.53,-3.72 -3.16,-6.93 -4.88,-9.62 6.12,0.2 11.71,0.33 16.79,0.44 5.07,0.09 9.47,0.09 13.2,0 3.74,-0.1 6.26,-0.24 7.61,-0.44 2.48,0 4.1,-0.33 4.88,-1 0.76,-0.67 1.14,-1.87 1.14,-3.59l0 -59.4z"/>
  <path id="_9_281" class="fil5" d="M8824.56 2694.1l89.54 0 0 19.8 -89.54 0 0 -19.8zm-0.29 -56.53l103.03 0 0 135.45 -103.03 0 0 -19.52 81.51 0 0 -96.71 -81.51 0 0 -19.22zm-10.62 240.19l-2.01 -19.51 9.75 -8.9 83.8 -27.26c0.77,2.87 1.67,6.03 2.73,9.47 1.05,3.45 2.05,6.32 3.01,8.61 -20.28,7.08 -36.49,12.82 -48.65,17.21 -12.14,4.4 -21.47,7.85 -27.98,10.33 -6.5,2.49 -11.18,4.45 -14.06,5.89 -2.87,1.43 -5.07,2.81 -6.61,4.15zm62.56 -81.21l18.08 -8.9c5.17,7.84 10.33,16.26 15.5,25.25 5.17,8.99 9.95,17.7 14.35,26.12 4.4,8.42 7.94,15.89 10.62,22.39l-19.52 10.62c-2.48,-6.5 -5.88,-14.11 -10.18,-22.82 -4.31,-8.71 -8.99,-17.7 -14.07,-26.98 -5.07,-9.27 -10,-17.84 -14.78,-25.68zm-62.56 81.21c-0.56,-2.1 -1.34,-4.54 -2.29,-7.31 -0.96,-2.78 -2.05,-5.45 -3.3,-8.04 -1.25,-2.58 -2.44,-4.74 -3.59,-6.46 2.49,-1.34 5.17,-3.4 8.04,-6.17 2.87,-2.78 4.3,-6.94 4.3,-12.49l0 -199.73 21.53 0 0 220.69c0,0 -0.82,0.38 -2.44,1.15 -1.63,0.76 -3.68,1.86 -6.17,3.3 -2.49,1.43 -4.97,2.96 -7.46,4.59 -2.49,1.63 -4.54,3.34 -6.17,5.17 -1.63,1.82 -2.44,3.59 -2.44,5.3zm213.24 -238.48l21.23 0 0 165.58c0,5.74 -0.71,10.33 -2.14,13.78 -1.44,3.45 -4.16,6.03 -8.19,7.75 -4.01,1.73 -9.37,2.82 -16.06,3.3 -6.7,0.48 -15.31,0.62 -25.84,0.44 -0.18,-2.87 -0.9,-6.27 -2.14,-10.19 -1.25,-3.92 -2.63,-7.41 -4.16,-10.47 7.26,0.18 13.92,0.33 19.95,0.43 6.02,0.09 10,0.05 11.91,-0.14 2.1,0 3.54,-0.39 4.3,-1.15 0.76,-0.76 1.15,-2.11 1.15,-4.01l0 -165.31zm-73.47 0l85.23 0 0 20.09 -63.99 0 0 227 -21.24 0 0 -247.09z"/>
  <path id="_10_282" class="fil5" d="M9218.01 2654.49l107.62 0 0 20.66 -107.62 0 0 -20.66zm101.03 0l3.44 0 3.74 -0.58 13.2 3.45c-4.59,38.45 -12.29,72.42 -23.11,101.88 -10.8,29.46 -24.01,54.66 -39.61,75.61 -15.59,20.95 -33.05,38.13 -52.37,51.52 -1.53,-2.49 -3.69,-5.35 -6.46,-8.61 -2.78,-3.25 -5.32,-5.83 -7.61,-7.75 17.79,-11.09 34.11,-26.63 48.93,-46.63 14.83,-19.99 27.41,-43.81 37.74,-71.46 10.33,-27.65 17.7,-58.4 22.1,-92.26l0 -5.17zm-68.3 14.92c4.39,29.85 10.71,57.68 18.94,83.51 8.22,25.83 18.93,48.55 32.13,68.17 13.2,19.61 29.37,35.05 48.51,46.34 -1.53,1.15 -3.25,2.73 -5.17,4.74 -1.91,2.01 -3.74,4.07 -5.45,6.17 -1.73,2.11 -3.16,4.12 -4.31,6.03 -19.89,-13.01 -36.63,-29.9 -50.21,-50.65 -13.59,-20.75 -24.64,-44.77 -33.15,-72.04 -8.52,-27.26 -15.27,-57.05 -20.24,-89.39l18.94 -2.87zm-164.15 -33.58l130.29 0 0 19.52 -130.29 0 0 -19.52zm30.42 59.69l71.75 0 0 18.66 -71.75 0 0 -18.66zm0 60.27l72.6 0 0 18.94 -72.6 0 0 -18.94zm-11.2 -109.34l20.66 0 0 184.25 -20.66 2.58 0 -186.83zm-22.09 179.65c11.29,-1.72 24.39,-3.68 39.32,-5.88 14.92,-2.2 30.75,-4.64 47.49,-7.32 16.74,-2.67 33.33,-5.35 49.79,-8.04l1.15 18.37c-15.69,2.87 -31.48,5.74 -47.35,8.61 -15.88,2.87 -31.09,5.55 -45.62,8.04 -14.54,2.49 -27.85,4.78 -39.89,6.88l-4.88 -20.66zm91.26 -179.94l20.95 0 0 239.63 -20.95 0 0 -239.63z"/>
  <path id="_11_283" class="fil5" d="M9398.52 2694.1l89.54 0 0 19.8 -89.54 0 0 -19.8zm-0.29 -56.53l103.03 0 0 135.45 -103.03 0 0 -19.52 81.51 0 0 -96.71 -81.51 0 0 -19.22zm-10.62 240.19l-2.01 -19.51 9.75 -8.9 83.8 -27.26c0.77,2.87 1.67,6.03 2.73,9.47 1.05,3.45 2.05,6.32 3.01,8.61 -20.28,7.08 -36.49,12.82 -48.65,17.21 -12.14,4.4 -21.47,7.85 -27.98,10.33 -6.5,2.49 -11.18,4.45 -14.06,5.89 -2.87,1.43 -5.07,2.81 -6.61,4.15zm62.56 -81.21l18.08 -8.9c5.17,7.84 10.33,16.26 15.5,25.25 5.17,8.99 9.95,17.7 14.35,26.12 4.4,8.42 7.94,15.89 10.62,22.39l-19.52 10.62c-2.48,-6.5 -5.88,-14.11 -10.18,-22.82 -4.31,-8.71 -8.99,-17.7 -14.07,-26.98 -5.07,-9.27 -10,-17.84 -14.78,-25.68zm-62.56 81.21c-0.56,-2.1 -1.34,-4.54 -2.29,-7.31 -0.96,-2.78 -2.05,-5.45 -3.3,-8.04 -1.25,-2.58 -2.44,-4.74 -3.59,-6.46 2.49,-1.34 5.17,-3.4 8.04,-6.17 2.87,-2.78 4.3,-6.94 4.3,-12.49l0 -199.73 21.53 0 0 220.69c0,0 -0.82,0.38 -2.44,1.15 -1.63,0.76 -3.68,1.86 -6.17,3.3 -2.49,1.43 -4.97,2.96 -7.46,4.59 -2.49,1.63 -4.54,3.34 -6.17,5.17 -1.63,1.82 -2.44,3.59 -2.44,5.3zm213.24 -238.48l21.23 0 0 165.58c0,5.74 -0.71,10.33 -2.14,13.78 -1.44,3.45 -4.16,6.03 -8.19,7.75 -4.01,1.73 -9.37,2.82 -16.06,3.3 -6.7,0.48 -15.31,0.62 -25.84,0.44 -0.18,-2.87 -0.9,-6.27 -2.14,-10.19 -1.25,-3.92 -2.63,-7.41 -4.16,-10.47 7.26,0.18 13.92,0.33 19.95,0.43 6.02,0.09 10,0.05 11.91,-0.14 2.1,0 3.54,-0.39 4.3,-1.15 0.76,-0.76 1.15,-2.11 1.15,-4.01l0 -165.31zm-73.47 0l85.23 0 0 20.09 -63.99 0 0 227 -21.24 0 0 -247.09z"/>
  <path id="_12_284" class="fil5" d="M9703.01 2642.44l185.68 0 0 20.66 -185.68 0 0 -20.66zm0 66.86l185.1 0 0 20.37 -185.1 0 0 -20.37zm-1.72 68.59l187.4 0 0 20.37 -187.4 0 0 -20.37zm-10.62 -135.45l21.24 0 0 104.17c0,10.91 -0.47,22.58 -1.43,35.01 -0.96,12.44 -2.73,25.02 -5.32,37.74 -2.58,12.73 -6.5,24.93 -11.76,36.6 -5.27,11.67 -12.2,22.29 -20.81,31.86 -0.96,-1.53 -2.49,-3.21 -4.59,-5.03 -2.11,-1.82 -4.21,-3.59 -6.32,-5.3 -2.1,-1.73 -4.01,-2.97 -5.74,-3.74 8.04,-8.99 14.35,-18.75 18.94,-29.27 4.59,-10.52 8.04,-21.38 10.33,-32.57 2.29,-11.18 3.78,-22.33 4.45,-33.43 0.67,-11.1 1,-21.72 1,-31.86l0 -104.17zm189.42 0l21.23 0 0 214.65c0,6.89 -1,12.15 -3.01,15.78 -2.01,3.64 -5.41,6.41 -10.19,8.32 -4.77,1.73 -11.47,2.78 -20.09,3.16 -8.61,0.38 -19.7,0.47 -33.29,0.29 -0.58,-2.67 -1.58,-6.08 -3.01,-10.19 -1.44,-4.1 -2.92,-7.6 -4.45,-10.47 6.7,0.18 13.16,0.33 19.37,0.43 6.21,0.09 11.62,0.09 16.21,0 4.59,-0.09 7.75,-0.14 9.48,-0.14 2.86,-0.2 4.88,-0.77 6.02,-1.73 1.15,-0.96 1.73,-2.77 1.73,-5.45l0 -214.65zm-99.3 7.75l21.8 0 0 233.6 -21.8 0 0 -233.6z"/>
  <path id="_13_285" class="fil5" d="M4165.4 2684.06l216.1 0 0 19.22 -216.1 0 0 -19.22zm98.72 -35.87l22.68 1.43c-0.77,9.37 -1.73,19.46 -2.87,30.28 -1.15,10.8 -2.4,21.24 -3.74,31.28 -1.34,10.04 -2.67,18.79 -4.01,26.25l-20.66 0c1.14,-7.64 2.25,-16.59 3.3,-26.83 1.05,-10.24 2.05,-20.86 3.01,-31.86 0.96,-11 1.73,-21.18 2.29,-30.55zm15.22 195.43l15.21 -13.2c9.56,3.63 19.61,7.79 30.13,12.48 10.53,4.69 20.62,9.37 30.28,14.07 9.66,4.69 17.85,9.04 24.54,13.05l-15.21 14.64c-6.5,-4.21 -14.59,-8.8 -24.25,-13.78 -9.66,-4.97 -19.75,-9.85 -30.28,-14.63 -10.53,-4.78 -20.66,-8.99 -30.42,-12.63zm68.02 -219.83l17.21 17.21c-13.58,2.87 -28.84,5.5 -45.77,7.9 -16.93,2.39 -34.73,4.45 -53.38,6.17 -18.64,1.72 -37.4,3.16 -56.24,4.3 -18.84,1.15 -37.07,2.01 -54.66,2.58 -0.39,-2.67 -1.11,-5.83 -2.16,-9.47 -1.05,-3.63 -2.16,-6.61 -3.3,-8.9 17.41,-0.76 35.34,-1.72 53.8,-2.87 18.47,-1.14 36.6,-2.54 54.39,-4.16 17.79,-1.63 34.44,-3.54 49.94,-5.73 15.5,-2.2 28.89,-4.54 40.18,-7.03zm-198.31 19.8l21.23 0 0 80.08c0,11.67 -0.38,24.39 -1.14,38.16 -0.76,13.78 -2.25,27.79 -4.45,42.04 -2.2,14.26 -5.45,28.18 -9.75,41.76 -4.31,13.58 -9.9,26.02 -16.79,37.31 -1.34,-1.15 -3.21,-2.44 -5.6,-3.87 -2.39,-1.44 -4.73,-2.82 -7.02,-4.16 -2.31,-1.35 -4.4,-2.31 -6.32,-2.87 6.88,-10.72 12.34,-22.39 16.36,-35.02 4.01,-12.63 6.98,-25.54 8.89,-38.74 1.91,-13.2 3.16,-26.21 3.74,-39.03 0.58,-12.82 0.86,-24.69 0.86,-35.58l0 -80.08zm115.36 119.96l22.1 0 0 26.12c0,5.74 -0.62,11.91 -1.87,18.52 -1.25,6.6 -3.78,13.34 -7.6,20.22 -3.83,6.89 -9.48,13.73 -16.94,20.52 -7.46,6.79 -17.41,13.29 -29.85,19.52 -12.43,6.21 -27.83,12.1 -46.2,17.64 -0.96,-1.72 -2.25,-3.54 -3.87,-5.45 -1.63,-1.91 -3.34,-3.92 -5.17,-6.02 -1.81,-2.11 -3.59,-3.83 -5.3,-5.17 17.79,-4.6 32.47,-9.57 44.04,-14.93 11.58,-5.35 20.81,-10.9 27.7,-16.64 6.89,-5.74 11.96,-11.44 15.21,-17.08 3.25,-5.65 5.36,-11.2 6.32,-16.65 0.96,-5.45 1.43,-10.38 1.43,-14.78l0 -25.83zm-72.03 -32.13l167.31 0 0 100.44 -22.39 0 0 -80.06 -123.39 0 0 78.92 -21.53 0 0 -99.3z"/>
  <path id="_14" class="fil5" d="M5950.15 2730.83l250.54 0 0 19.22 -250.54 0 0 -19.22zm113.06 10.04l21.81 0 0 122.25c0,6.12 -0.86,10.71 -2.58,13.78 -1.72,3.06 -4.88,5.35 -9.47,6.88 -4.4,1.34 -10.33,2.2 -17.8,2.58 -7.46,0.38 -16.83,0.58 -28.12,0.58 -0.58,-2.87 -1.58,-6.08 -3.01,-9.62 -1.44,-3.54 -2.92,-6.64 -4.45,-9.33 5.74,0.2 11.15,0.33 16.21,0.44 5.07,0.09 9.52,0.09 13.35,0 3.83,-0.1 6.5,-0.15 8.04,-0.15 2.29,-0.18 3.87,-0.67 4.73,-1.43 0.86,-0.77 1.29,-2.11 1.29,-4.02l0 -121.96zm19.23 12.05c7.08,16.45 16.5,31.52 28.27,45.21 11.76,13.67 25.59,25.49 41.46,35.43 15.88,9.95 33.29,17.51 52.23,22.68 -1.53,1.52 -3.21,3.34 -5.02,5.45 -1.82,2.1 -3.54,4.35 -5.17,6.75 -1.63,2.39 -2.92,4.54 -3.87,6.46 -19.52,-6.12 -37.27,-14.74 -53.25,-25.83 -15.97,-11.1 -29.99,-24.35 -42.04,-39.76 -12.05,-15.4 -22,-32.38 -29.84,-50.94l17.21 -5.45zm80.93 4.31l18.37 13.49c-6.5,5.35 -13.49,10.9 -20.95,16.64 -7.46,5.74 -14.87,11.15 -22.24,16.21 -7.37,5.07 -14.3,9.52 -20.81,13.35l-14.63 -12.06c6.32,-4.01 13.16,-8.75 20.52,-14.21 7.36,-5.45 14.54,-11.14 21.52,-17.08 6.99,-5.93 13.06,-11.38 18.23,-16.35zm-194 15.21l14.64 -13.2c6.12,3.25 12.53,6.99 19.22,11.2 6.7,4.21 13.06,8.46 19.08,12.76 6.03,4.31 10.86,8.28 14.49,11.91l-15.21 15.21c-3.44,-3.83 -8.13,-7.98 -14.06,-12.48 -5.94,-4.5 -12.2,-8.99 -18.81,-13.49 -6.6,-4.5 -13.05,-8.46 -19.37,-11.91zm-18.93 75.48c9.75,-3.83 21.23,-8.32 34.43,-13.49 13.2,-5.17 27.12,-10.71 41.76,-16.65 14.63,-5.93 29.22,-11.96 43.77,-18.08l4.3 18.37c-13.01,5.74 -26.21,11.58 -39.61,17.51 -13.39,5.93 -26.31,11.52 -38.74,16.79 -12.44,5.26 -23.91,10.18 -34.44,14.78l-11.47 -19.23zm27.55 -163.29l171.9 0 0 19.8 -171.9 0 0 -19.8zm165.58 -46.21l2.58 0 3.74 -1.14 16.94 1.14c0,10.33 -0.33,21.53 -1.01,33.58 -0.67,12.06 -1.43,24.11 -2.29,36.17 -0.85,12.05 -1.76,23.34 -2.72,33.86l-22.39 -0.86c0.77,-8.04 1.44,-16.65 2.02,-25.83 0.56,-9.19 1.1,-18.37 1.58,-27.56 0.47,-9.18 0.85,-17.84 1.14,-25.97 0.29,-8.13 0.43,-14.98 0.43,-20.52l0 -2.87zm-174.2 0l180.51 0 0 19.81 -180.51 0 0 -19.81z"/>
  <path id="_15" class="fil5" d="M7084.58 2678.31l247.09 0 0 19.8 -247.09 0 0 -19.8zm-1.43 113.64l249.38 0 0 20.1 -249.38 0 0 -20.1zm194.86 -164.44l22.38 7.18c-5.35,7.26 -11.05,14.49 -17.08,21.66 -6.02,7.17 -11.62,13.34 -16.79,18.51l-17.5 -6.6c3.25,-3.83 6.65,-8.13 10.19,-12.91 3.54,-4.78 6.98,-9.62 10.33,-14.49 3.34,-4.88 6.17,-9.33 8.46,-13.35zm-82.08 -4.88l21.53 0 0 132.02 -21.53 0 0 -132.02zm-80.06 14.35l18.08 -8.32c6.32,5.55 12.44,11.96 18.37,19.23 5.94,7.26 10.33,13.77 13.2,19.51l-19.23 9.48c-2.67,-5.56 -6.88,-12.11 -12.63,-19.66 -5.74,-7.56 -11.67,-14.31 -17.79,-20.24zm80.93 123.97l22.67 0c-1.72,13.2 -4.06,25.45 -7.02,36.73 -2.97,11.29 -7.32,21.57 -13.06,30.85 -5.74,9.28 -13.34,17.59 -22.82,24.96 -9.47,7.37 -21.42,13.78 -35.87,19.23 -14.45,5.45 -31.9,10 -52.37,13.63 -0.58,-1.91 -1.49,-4.12 -2.73,-6.6 -1.25,-2.49 -2.63,-4.88 -4.16,-7.18 -1.52,-2.29 -2.96,-4.3 -4.3,-6.02 19.32,-3.07 35.63,-6.84 48.93,-11.33 13.29,-4.5 24.29,-9.86 33,-16.07 8.71,-6.21 15.54,-13.2 20.52,-20.95 4.97,-7.75 8.75,-16.41 11.33,-25.98 2.58,-9.56 4.54,-19.99 5.88,-31.28zm-8.61 -73.75l17.23 7.17c-8.04,11.29 -18.03,21.8 -29.99,31.57 -11.96,9.75 -25.02,18.26 -39.18,25.54 -14.16,7.26 -28.59,13.11 -43.33,17.5 -0.96,-1.91 -2.25,-3.97 -3.87,-6.17 -1.63,-2.2 -3.3,-4.35 -5.03,-6.46 -1.72,-2.1 -3.34,-3.83 -4.88,-5.17 14.54,-3.45 28.79,-8.32 42.76,-14.63 13.96,-6.32 26.69,-13.73 38.16,-22.24 11.48,-8.52 20.86,-17.56 28.12,-27.12zm32.72 111.35c9.18,19.32 23.96,34.58 44.33,45.77 20.39,11.2 45.39,18.51 75.05,21.95 -1.53,1.53 -3.21,3.49 -5.03,5.88 -1.81,2.4 -3.44,4.83 -4.88,7.32 -1.43,2.49 -2.63,4.78 -3.59,6.88 -21.04,-3.25 -39.65,-8.42 -55.82,-15.5 -16.17,-7.08 -30.04,-16.21 -41.61,-27.41 -11.58,-11.2 -20.9,-24.63 -27.98,-40.32l19.52 -4.59zm-18.66 -94.42l10.04 -14.92c9.57,4.39 19.81,9.28 30.7,14.63 10.91,5.36 21.77,10.86 32.57,16.5 10.82,5.65 21,11.06 30.57,16.22 9.57,5.17 17.7,9.75 24.4,13.77l-10.62 17.8c-6.5,-4.4 -14.45,-9.28 -23.82,-14.64 -9.37,-5.35 -19.46,-10.95 -30.28,-16.79 -10.8,-5.83 -21.71,-11.58 -32.71,-17.21 -11,-5.65 -21.28,-10.77 -30.85,-15.36z"/>
  <path id="_16" class="fil5" d="M7430.96 2671.43l105.04 0 0 19.51 -105.04 0 0 -19.51zm5.17 53.37l15.5 -10.04c7.85,9.95 15.69,20.52 23.53,31.71 7.85,11.2 15.31,22.44 22.39,33.73 7.08,11.29 13.34,22.24 18.79,32.86 5.45,10.62 9.8,20.24 13.06,28.84l-17.51 12.06c-3.06,-8.61 -7.31,-18.28 -12.76,-28.99 -5.45,-10.71 -11.58,-21.86 -18.37,-33.44 -6.79,-11.58 -14.02,-23.11 -21.66,-34.58 -7.66,-11.48 -15.31,-22.2 -22.97,-32.15zm62.27 -44.19l20.1 2.29c-4.21,29.08 -9.81,55.92 -16.79,80.5 -6.99,24.58 -15.93,46.73 -26.84,66.44 -10.9,19.7 -24.39,36.83 -40.46,51.37 -0.96,-1.34 -2.29,-3.01 -4.01,-5.02 -1.73,-2.02 -3.6,-3.98 -5.6,-5.89 -2.01,-1.91 -3.78,-3.54 -5.3,-4.88 15.68,-13.01 28.7,-28.7 39.03,-47.07 10.33,-18.37 18.7,-39.12 25.11,-62.27 6.41,-23.15 11.33,-48.31 14.77,-75.48zm-38.45 -48.78l17.79 -7.17c3.83,5.93 7.7,12.52 11.62,19.8 3.93,7.26 6.85,13.49 8.76,18.66l-18.94 8.32c-1.53,-5.17 -4.21,-11.53 -8.04,-19.09 -3.83,-7.55 -7.56,-14.39 -11.2,-20.51zm88.1 20.95l18.66 0 0 171.04 -18.66 0 0 -171.04zm46.5 -30.7l19.8 0 0 240.19c0,5.74 -0.76,10.19 -2.29,13.35 -1.53,3.16 -4.12,5.59 -7.75,7.32 -3.45,1.52 -8.13,2.53 -14.07,3.01 -5.93,0.47 -13.49,0.71 -22.67,0.71 -0.38,-2.49 -1.2,-5.59 -2.44,-9.33 -1.23,-3.72 -2.53,-7.03 -3.87,-9.9 6.51,0.2 12.39,0.29 17.65,0.29 5.26,0 8.86,-0.09 10.76,-0.29 1.91,0 3.21,-0.38 3.87,-1.14 0.68,-0.76 1.01,-2.11 1.01,-4.02l0 -240.19zm-219.83 19.51l14.34 -11.2c4.4,3.64 8.99,7.7 13.78,12.2 4.78,4.5 9.19,8.95 13.2,13.35 4.01,4.39 7.28,8.42 9.75,12.05l-15.21 12.63c-2.29,-3.63 -5.41,-7.7 -9.33,-12.2 -3.92,-4.5 -8.22,-9.13 -12.91,-13.92 -4.68,-4.78 -9.22,-9.09 -13.63,-12.91zm-11.77 77.77l13.49 -12.34c4.98,3.06 10,6.65 15.07,10.76 5.07,4.12 9.85,8.19 14.34,12.2 4.5,4.02 8.19,7.75 11.06,11.2l-14.07 14.06c-2.67,-3.44 -6.26,-7.26 -10.76,-11.47 -4.5,-4.21 -9.28,-8.46 -14.35,-12.78 -5.07,-4.3 -10,-8.17 -14.78,-11.62zm6.03 146.94c3.63,-7.08 7.75,-15.4 12.34,-24.97 4.6,-9.56 9.19,-19.7 13.78,-30.42 4.59,-10.71 8.8,-21.04 12.63,-30.99l16.36 11.2c-3.45,9.37 -7.28,19.17 -11.48,29.41 -4.21,10.24 -8.46,20.24 -12.76,29.99 -4.31,9.75 -8.57,18.84 -12.78,27.26l-18.08 -11.47z"/>
  <path id="_17" class="fil5" d="M7803.75 2651.62l102.46 0 0 19.23 -102.46 0 0 -19.23zm2.31 -29.55l20.66 4.3c-3.07,11.67 -6.7,23.2 -10.91,34.58 -4.21,11.38 -8.86,22 -13.92,31.86 -5.07,9.85 -10.48,18.61 -16.22,26.25 -1.34,-0.96 -3.1,-2.14 -5.3,-3.59 -2.2,-1.43 -4.45,-2.82 -6.75,-4.16 -2.29,-1.34 -4.4,-2.39 -6.32,-3.15 8.81,-10.72 16.51,-23.73 23.11,-39.04 6.61,-15.3 11.82,-30.99 15.65,-47.05zm16.64 61.7l18.37 -7.75c5.17,4.39 10.28,9.33 15.36,14.78 5.06,5.45 9.66,10.8 13.77,16.07 4.12,5.26 7.41,10 9.9,14.21l-19.22 9.18c-2.49,-4.4 -5.79,-9.33 -9.9,-14.78 -4.12,-5.45 -8.61,-10.95 -13.49,-16.5 -4.88,-5.55 -9.8,-10.62 -14.78,-15.21zm-151.82 -45.35l20.95 0 0 80.93 -20.95 0 0 -80.93zm59.98 -13.2l20.95 0 0 103.61 -20.95 0 0 -103.61zm58.55 185.68l21.53 0 0 44.77c0,3.45 0.96,5.7 2.87,6.75 1.91,1.05 6.21,1.58 12.91,1.58 1.72,0 4.64,0 8.75,0 4.12,0 8.71,0 13.77,0 5.07,0 9.81,0 14.22,0 4.39,0 7.64,0 9.75,0 3.83,0 6.75,-0.67 8.75,-2.01 2.01,-1.35 3.39,-4.16 4.16,-8.47 0.76,-4.3 1.34,-10.76 1.72,-19.37 2.29,1.73 5.32,3.25 9.04,4.59 3.74,1.35 7.03,2.31 9.9,2.87 -0.76,10.91 -2.16,19.28 -4.16,25.11 -2.01,5.83 -5.17,9.9 -9.47,12.2 -4.31,2.29 -10.28,3.45 -17.94,3.45 -1.15,0 -3.45,0 -6.88,0 -3.45,0 -7.32,0 -11.62,0 -4.31,0 -8.71,0 -13.2,0 -4.5,0 -8.47,0 -11.91,0 -3.45,0 -5.74,0 -6.89,0 -9.37,0 -16.59,-0.77 -21.66,-2.29 -5.07,-1.53 -8.61,-4.21 -10.62,-8.04 -2.01,-3.83 -3.01,-9.19 -3.01,-16.07l0 -45.06zm-20.37 -41.04l22.38 0 0 22.96c0,5.93 -0.76,12.2 -2.29,18.79 -1.53,6.61 -4.59,13.25 -9.18,19.95 -4.6,6.7 -11.29,13.29 -20.1,19.81 -8.8,6.5 -20.47,12.76 -35.01,18.79 -14.54,6.03 -32.62,11.62 -54.25,16.79 -0.96,-1.72 -2.19,-3.63 -3.72,-5.74 -1.53,-2.1 -3.16,-4.21 -4.88,-6.31 -1.73,-2.11 -3.45,-3.83 -5.17,-5.17 21.04,-4.4 38.41,-9.19 52.08,-14.35 13.69,-5.17 24.54,-10.47 32.57,-15.92 8.04,-5.45 14.02,-10.91 17.94,-16.36 3.92,-5.45 6.5,-10.82 7.75,-16.07 1.25,-5.26 1.87,-10.18 1.87,-14.78l0 -22.38zm-74.91 -32.43l178.8 0 0 89.54 -22.39 0 0 -70.31 -135.17 0 0 72.03 -21.24 0 0 -91.26z"/>
  <path id="_18" class="fil5" d="M4748.27 2863.42l71.16 -210.35 29.56 0 71.46 210.35 -28.13 0 -36.73 -117.66c-3.82,-12.05 -7.46,-23.87 -10.9,-35.44 -3.45,-11.58 -6.89,-23.49 -10.33,-35.73l-1.15 0c-3.25,12.24 -6.65,24.16 -10.19,35.73 -3.54,11.58 -7.13,23.39 -10.76,35.44l-37.31 117.66 -26.68 0zm37.01 -64.28l0 -20.95 97 0 0 20.95 -97 0z"/>
  <polygon id="_19" class="fil5" points="4950.59,2863.42 4950.59,2653.06 4976.99,2653.06 4976.99,2863.42 "/>
  <path id="_20" class="fil5" d="M6353.93 2723.94c5.74,0 10.86,1.4 15.36,4.16 4.5,2.78 8.13,6.41 10.9,10.91 2.78,4.5 4.16,9.62 4.16,15.36 0,5.55 -1.38,10.62 -4.16,15.21 -2.77,4.59 -6.4,8.28 -10.9,11.05 -4.5,2.78 -9.62,4.16 -15.36,4.16 -5.55,0 -10.62,-1.38 -15.21,-4.16 -4.59,-2.77 -8.28,-6.5 -11.05,-11.18 -2.78,-4.69 -4.16,-9.72 -4.16,-15.07 0,-5.74 1.38,-10.86 4.16,-15.36 2.77,-4.5 6.5,-8.13 11.18,-10.91 4.69,-2.77 9.71,-4.16 15.07,-4.16z"/>
  <path id="_21" class="fil5" d="M8000.63 2879.49c-6.12,-7.66 -12.82,-15.31 -20.09,-22.96 -7.28,-7.66 -14.6,-15.02 -21.95,-22.1 -7.37,-7.08 -14.49,-13.39 -21.39,-18.94l18.66 -16.35c6.88,5.55 14.16,11.96 21.81,19.22 7.66,7.28 15.16,14.74 22.53,22.39 7.36,7.64 14.01,15.01 19.94,22.09l-19.51 16.65z"/>
  <path id="_22" class="fil5" d="M8718.09 2879.49c-6.12,-7.66 -12.82,-15.31 -20.09,-22.96 -7.28,-7.66 -14.6,-15.02 -21.95,-22.1 -7.37,-7.08 -14.49,-13.39 -21.39,-18.94l18.66 -16.35c6.88,5.55 14.16,11.96 21.81,19.22 7.66,7.28 15.16,14.74 22.53,22.39 7.36,7.64 14.01,15.01 19.94,22.09l-19.51 16.65z"/>
  <path class="fil6" d="M3930.09 3325.25c-13.02,0 -25.11,-2.44 -36.31,-7.32 -11.2,-4.88 -20.9,-12 -29.12,-21.38 -8.23,-9.39 -14.64,-20.81 -19.23,-34.3 -4.59,-13.49 -6.88,-28.74 -6.88,-45.77 0,-17.03 2.34,-32.28 7.02,-45.77 4.69,-13.49 11.24,-24.92 19.66,-34.29 8.42,-9.37 18.28,-16.55 29.56,-21.53 11.29,-4.97 23.63,-7.46 37.02,-7.46 12.82,0 24.11,2.63 33.86,7.9 9.75,5.26 17.7,11.23 23.82,17.93l-14.35 17.23c-5.55,-5.94 -11.86,-10.72 -18.93,-14.35 -7.08,-3.63 -15.12,-5.45 -24.11,-5.45 -13.2,0 -24.78,3.45 -34.73,10.33 -9.95,6.89 -17.7,16.7 -23.24,29.41 -5.55,12.73 -8.32,27.8 -8.32,45.21 0,17.79 2.67,33.14 8.04,46.05 5.36,12.91 12.91,22.86 22.67,29.85 9.77,6.99 21.34,10.47 34.73,10.47 9.95,0 18.9,-2.1 26.83,-6.31 7.94,-4.21 15.27,-10.04 21.95,-17.5l14.64 16.93c-8.23,9.57 -17.61,16.98 -28.12,22.24 -10.53,5.26 -22.68,7.9 -36.45,7.9z"/>
  <path id="_1_286" class="fil6" d="M4072.99 3325.25c-16.45,0 -28.55,-5.17 -36.3,-15.5 -7.75,-10.34 -11.62,-25.45 -11.62,-45.35l0 -98.72 26.4 0 0 95.56c0,14.35 2.29,24.82 6.88,31.43 4.59,6.6 12.05,9.89 22.38,9.89 8.04,0 15.22,-2.1 21.53,-6.31 6.32,-4.21 13.2,-10.91 20.66,-20.1l0 -110.48 26.12 0 0 155.83 -21.8 0 -2.02 -24.4 -0.85 0c-7.28,8.42 -14.98,15.22 -23.11,20.39 -8.13,5.17 -17.55,7.75 -28.27,7.75z"/>
  <path id="_2_287" class="fil6" d="M4201.56 3321.52l0 -155.83 21.53 0 2.58 28.41 0.56 0c5.36,-9.95 11.91,-17.84 19.66,-23.68 7.75,-5.83 15.93,-8.75 24.54,-8.75 3.64,0 6.75,0.24 9.33,0.71 2.58,0.48 5.03,1.4 7.32,2.73l-4.88 22.67c-2.67,-0.76 -5.07,-1.38 -7.17,-1.87 -2.11,-0.47 -4.78,-0.71 -8.04,-0.71 -6.32,0 -13.11,2.73 -20.37,8.19 -7.28,5.45 -13.49,14.77 -18.66,27.97l0 100.16 -26.4 0z"/>
  <path id="_3_288" class="fil6" d="M4340.46 3325.25c-8.61,0 -16.36,-1.73 -23.24,-5.17 -6.88,-3.45 -12.29,-8.47 -16.21,-15.07 -3.92,-6.61 -5.88,-14.59 -5.88,-23.96 0,-17.03 7.6,-30.09 22.81,-39.18 15.21,-9.09 39.47,-15.45 72.75,-19.08 0,-6.7 -0.91,-13.06 -2.73,-19.08 -1.81,-6.03 -5.02,-10.91 -9.6,-14.64 -4.6,-3.72 -11.2,-5.59 -19.81,-5.59 -8.99,0 -17.46,1.76 -25.4,5.3 -7.93,3.54 -15.06,7.32 -21.38,11.35l-10.04 -18.09c4.78,-3.06 10.33,-6.17 16.65,-9.32 6.31,-3.16 13.2,-5.79 20.66,-7.9 7.46,-2.1 15.39,-3.16 23.82,-3.16 12.63,0 22.91,2.69 30.84,8.04 7.94,5.36 13.78,12.78 17.51,22.24 3.72,9.48 5.59,20.71 5.59,33.73l0 95.85 -21.53 0 -2.29 -18.66 -0.86 0c-7.26,6.12 -15.25,11.38 -23.96,15.78 -8.71,4.4 -17.94,6.61 -27.7,6.61zm7.46 -21.24c7.46,0 14.6,-1.73 21.39,-5.17 6.79,-3.45 13.92,-8.52 21.38,-15.21l0 -43.34c-17.41,1.91 -31.28,4.65 -41.61,8.17 -10.33,3.54 -17.7,7.85 -22.1,12.93 -4.39,5.06 -6.6,11.05 -6.6,17.93 0,8.99 2.67,15.36 8.04,19.08 5.35,3.74 11.86,5.6 19.51,5.6z"/>
  <path id="_4_289" class="fil6" d="M4509.78 3325.25c-10.91,0 -19.61,-2.16 -26.12,-6.46 -6.5,-4.31 -11.14,-10.39 -13.92,-18.23 -2.78,-7.84 -4.16,-16.93 -4.16,-27.27l0 -86.37 -23.24 0 0 -19.81 24.69 -1.43 2.86 -43.91 21.81 0 0 43.91 42.48 0 0 21.24 -42.48 0 0 87.24c0,9.37 1.78,16.7 5.32,21.95 3.54,5.27 9.8,7.9 18.79,7.9 2.87,0 5.93,-0.44 9.18,-1.29 3.25,-0.86 6.12,-1.87 8.61,-3.02l5.17 19.81c-4.4,1.53 -9.09,2.87 -14.07,4.01 -4.97,1.15 -9.94,1.73 -14.92,1.73z"/>
  <path id="_5_290" class="fil6" d="M4627.17 3325.25c-13.97,0 -26.6,-3.26 -37.89,-9.77 -11.29,-6.5 -20.24,-15.83 -26.83,-27.97 -6.6,-12.15 -9.9,-26.74 -9.9,-43.77 0,-12.82 1.91,-24.25 5.74,-34.3 3.83,-10.04 9.04,-18.64 15.65,-25.83 6.6,-7.17 14.1,-12.63 22.52,-16.35 8.43,-3.74 17.03,-5.6 25.84,-5.6 13.39,0 24.67,2.96 33.86,8.9 9.18,5.93 16.21,14.4 21.09,25.4 4.88,11 7.32,23.96 7.32,38.88 0,2.87 -0.1,5.55 -0.29,8.04 -0.2,2.49 -0.48,4.78 -0.86,6.89l-105.04 0c0.58,11.09 3.11,20.71 7.61,28.84 4.5,8.13 10.47,14.45 17.94,18.94 7.46,4.5 16.17,6.75 26.12,6.75 7.64,0 14.59,-1.11 20.8,-3.31 6.21,-2.19 12.29,-5.21 18.23,-9.04l9.18 17.51c-6.7,4.39 -14.25,8.13 -22.67,11.18 -8.42,3.07 -17.89,4.6 -28.41,4.6zm-49.08 -94.13l83.51 0c0,-15.69 -3.39,-27.7 -10.18,-36.02 -6.79,-8.32 -16.32,-12.49 -28.56,-12.49 -7.26,0 -14.1,1.91 -20.51,5.74 -6.41,3.83 -11.77,9.28 -16.07,16.36 -4.3,7.08 -7.03,15.88 -8.19,26.4z"/>
  <path id="_6_291" class="fil6" d="M4776.11 3325.25c-13.02,0 -24.35,-3.16 -34.01,-9.48 -9.66,-6.31 -17.12,-15.54 -22.38,-27.7 -5.27,-12.14 -7.9,-26.92 -7.9,-44.33 0,-16.83 3.16,-31.37 9.48,-43.62 6.31,-12.24 14.59,-21.72 24.82,-28.42 10.23,-6.69 21.28,-10.04 33.14,-10.04 9.19,0 17.08,1.58 23.68,4.74 6.6,3.16 13.34,7.61 20.22,13.34l-1.43 -26.68 0 -59.98 26.4 0 0 228.43 -21.53 0 -2.29 -18.37 -0.86 0c-6.12,6.12 -13.2,11.33 -21.23,15.65 -8.04,4.3 -16.74,6.46 -26.12,6.46zm5.73 -22.1c7.28,0 14.16,-1.76 20.66,-5.3 6.51,-3.54 12.91,-8.86 19.23,-15.93l0 -81.78c-6.5,-5.94 -12.82,-10.15 -18.94,-12.64 -6.12,-2.48 -12.43,-3.72 -18.93,-3.72 -8.23,0 -15.74,2.54 -22.53,7.6 -6.79,5.07 -12.24,12.06 -16.36,20.95 -4.12,8.9 -6.17,19.28 -6.17,31.14 0,12.43 1.72,23.15 5.17,32.15 3.45,8.98 8.37,15.83 14.78,20.51 6.41,4.69 14.1,7.03 23.09,7.03z"/>
  <path id="_7_292" class="fil6" d="M4896.07 3376.04l-6.32 -15.5c8.99,-4.01 16.07,-9.47 21.24,-16.36 5.17,-6.88 7.66,-14.72 7.46,-23.53l-2.87 -23.53 12.91 19.23c-1.91,2.11 -3.97,3.59 -6.17,4.45 -2.2,0.85 -4.54,1.29 -7.03,1.29 -5.17,0 -9.66,-1.63 -13.48,-4.88 -3.83,-3.25 -5.74,-7.75 -5.74,-13.49 0,-5.74 1.96,-10.24 5.88,-13.49 3.92,-3.25 8.57,-4.88 13.92,-4.88 6.89,0 12.29,2.72 16.21,8.17 3.93,5.45 5.89,12.96 5.89,22.53 0,13.78 -3.78,25.83 -11.33,36.16 -7.56,10.33 -17.74,18.28 -30.57,23.82z"/>
  <path id="_8_293" class="fil6" d="M5105.56 3325.25c-12.63,0 -24.49,-3.21 -35.59,-9.62 -11.09,-6.41 -19.95,-15.69 -26.54,-27.85 -6.6,-12.14 -9.9,-26.83 -9.9,-44.04 0,-17.41 3.31,-32.19 9.9,-44.34 6.6,-12.14 15.45,-21.47 26.54,-27.97 11.1,-6.51 22.97,-9.77 35.59,-9.77 9.56,0 18.7,1.82 27.41,5.45 8.71,3.63 16.41,8.99 23.09,16.07 6.7,7.08 11.96,15.69 15.78,25.83 3.83,10.15 5.74,21.71 5.74,34.73 0,17.21 -3.34,31.9 -10.04,44.04 -6.7,12.15 -15.5,21.43 -26.4,27.85 -10.91,6.41 -22.77,9.62 -35.58,9.62zm0 -21.81c8.99,0 16.88,-2.49 23.67,-7.46 6.79,-4.98 12.11,-11.96 15.92,-20.95 3.83,-8.99 5.74,-19.42 5.74,-31.28 0,-12.06 -1.91,-22.58 -5.74,-31.57 -3.82,-8.99 -9.13,-15.98 -15.92,-20.95 -6.79,-4.97 -14.68,-7.46 -23.67,-7.46 -8.99,0 -16.89,2.49 -23.68,7.46 -6.79,4.97 -12.05,11.96 -15.78,20.95 -3.72,8.99 -5.59,19.51 -5.59,31.57 0,11.86 1.87,22.29 5.59,31.28 3.74,8.99 8.99,15.97 15.78,20.95 6.79,4.97 14.69,7.46 23.68,7.46z"/>
  <path id="_9_294" class="fil6" d="M5218.91 3387.24l0 -221.55 21.53 0 2.58 18.08 0.56 0c7.08,-5.94 14.89,-11.1 23.39,-15.5 8.51,-4.4 17.27,-6.61 26.25,-6.61 13.4,0 24.73,3.31 34.01,9.9 9.28,6.6 16.26,15.83 20.95,27.7 4.68,11.86 7.03,25.83 7.03,41.9 0,17.79 -3.21,32.95 -9.62,45.49 -6.41,12.53 -14.74,22.09 -24.97,28.7 -10.23,6.6 -21.28,9.9 -33.14,9.9 -7.08,0 -14.26,-1.58 -21.53,-4.74 -7.28,-3.16 -14.45,-7.61 -21.53,-13.34l0.86 27.26 0 52.81 -26.4 0zm64.28 -84.09c8.61,0 16.32,-2.44 23.11,-7.32 6.79,-4.88 12.1,-11.96 15.92,-21.24 3.83,-9.27 5.74,-20.33 5.74,-33.14 0,-11.48 -1.38,-21.57 -4.16,-30.28 -2.77,-8.71 -7.13,-15.45 -13.05,-20.24 -5.94,-4.78 -13.97,-7.17 -24.11,-7.17 -6.5,0 -13.16,1.81 -19.95,5.45 -6.79,3.63 -13.92,8.89 -21.38,15.78l0 82.07c6.88,5.94 13.67,10.09 20.37,12.49 6.7,2.39 12.53,3.59 17.5,3.59z"/>
  <path id="_10_295" class="fil6" d="M5459.98 3325.25c-13.97,0 -26.6,-3.26 -37.89,-9.77 -11.29,-6.5 -20.24,-15.83 -26.83,-27.97 -6.6,-12.15 -9.9,-26.74 -9.9,-43.77 0,-12.82 1.91,-24.25 5.74,-34.3 3.83,-10.04 9.04,-18.64 15.65,-25.83 6.6,-7.17 14.1,-12.63 22.52,-16.35 8.43,-3.74 17.03,-5.6 25.84,-5.6 13.39,0 24.67,2.96 33.86,8.9 9.18,5.93 16.21,14.4 21.09,25.4 4.88,11 7.32,23.96 7.32,38.88 0,2.87 -0.1,5.55 -0.29,8.04 -0.2,2.49 -0.48,4.78 -0.86,6.89l-105.04 0c0.58,11.09 3.11,20.71 7.61,28.84 4.5,8.13 10.47,14.45 17.94,18.94 7.46,4.5 16.17,6.75 26.12,6.75 7.64,0 14.59,-1.11 20.8,-3.31 6.21,-2.19 12.29,-5.21 18.23,-9.04l9.18 17.51c-6.7,4.39 -14.25,8.13 -22.67,11.18 -8.42,3.07 -17.89,4.6 -28.41,4.6zm-49.08 -94.13l83.51 0c0,-15.69 -3.39,-27.7 -10.18,-36.02 -6.79,-8.32 -16.32,-12.49 -28.56,-12.49 -7.26,0 -14.1,1.91 -20.51,5.74 -6.41,3.83 -11.77,9.28 -16.07,16.36 -4.3,7.08 -7.03,15.88 -8.19,26.4z"/>
  <path id="_11_296" class="fil6" d="M5555.83 3321.52l0 -155.83 21.53 0 2.58 22.67 0.56 0c7.47,-7.46 15.36,-13.78 23.68,-18.94 8.32,-5.17 17.84,-7.75 28.55,-7.75 16.45,0 28.51,5.21 36.17,15.65 7.64,10.42 11.47,25.59 11.47,45.49l0 98.72 -26.12 0 0 -95.27c0,-14.74 -2.34,-25.35 -7.03,-31.86 -4.68,-6.5 -12.19,-9.77 -22.53,-9.77 -8.02,0 -15.21,2.02 -21.52,6.03 -6.32,4.02 -13.31,9.95 -20.95,17.79l0 113.08 -26.4 0z"/>
  <polygon id="_12_297" class="fil6" points="5717.69,3251.21 5717.69,3231.12 5791.16,3231.41 5791.45,3251.21 "/>
  <path id="_13_298" class="fil6" d="M5871.23 3325.25c-10.91,0 -21.47,-2.06 -31.71,-6.18 -10.24,-4.1 -18.99,-9.22 -26.27,-15.35l12.64 -17.5c6.88,5.55 13.96,10.04 21.23,13.48 7.28,3.45 15.6,5.17 24.97,5.17 10.33,0 18.03,-2.34 23.11,-7.02 5.06,-4.69 7.6,-10.48 7.6,-17.36 0,-5.36 -1.76,-9.81 -5.3,-13.35 -3.54,-3.54 -8.04,-6.6 -13.49,-9.18 -5.45,-2.58 -11.05,-4.92 -16.79,-7.03 -7.28,-2.87 -14.4,-6.08 -21.39,-9.62 -6.98,-3.54 -12.72,-8.13 -17.21,-13.77 -4.5,-5.65 -6.75,-12.87 -6.75,-21.68 0,-8.42 2.11,-15.92 6.32,-22.53 4.21,-6.6 10.33,-11.85 18.37,-15.77 8.04,-3.93 17.7,-5.89 28.99,-5.89 9.56,0 18.51,1.73 26.83,5.17 8.32,3.45 15.45,7.66 21.38,12.63l-12.63 16.36c-5.36,-3.83 -10.86,-7.08 -16.5,-9.75 -5.65,-2.67 -11.91,-4.02 -18.81,-4.02 -9.94,0 -17.26,2.25 -21.95,6.75 -4.68,4.5 -7.02,9.81 -7.02,15.93 0,4.78 1.58,8.8 4.73,12.05 3.16,3.25 7.32,5.98 12.49,8.19 5.17,2.19 10.62,4.44 16.36,6.73 5.74,2.11 11.43,4.4 17.08,6.89 5.64,2.49 10.71,5.45 15.21,8.89 4.5,3.45 8.13,7.7 10.91,12.78 2.77,5.07 4.16,11.33 4.16,18.79 0,8.42 -2.16,16.17 -6.46,23.24 -4.31,7.08 -10.62,12.68 -18.94,16.79 -8.32,4.12 -18.7,6.18 -31.14,6.18z"/>
  <path id="_14_299" class="fil6" d="M6025.35 3325.25c-12.63,0 -24.49,-3.21 -35.59,-9.62 -11.09,-6.41 -19.95,-15.69 -26.54,-27.85 -6.6,-12.14 -9.9,-26.83 -9.9,-44.04 0,-17.41 3.31,-32.19 9.9,-44.34 6.6,-12.14 15.45,-21.47 26.54,-27.97 11.1,-6.51 22.97,-9.77 35.59,-9.77 9.56,0 18.7,1.82 27.41,5.45 8.71,3.63 16.41,8.99 23.09,16.07 6.7,7.08 11.96,15.69 15.78,25.83 3.83,10.15 5.74,21.71 5.74,34.73 0,17.21 -3.34,31.9 -10.04,44.04 -6.7,12.15 -15.5,21.43 -26.4,27.85 -10.91,6.41 -22.77,9.62 -35.58,9.62zm0 -21.81c8.99,0 16.88,-2.49 23.67,-7.46 6.79,-4.98 12.11,-11.96 15.92,-20.95 3.83,-8.99 5.74,-19.42 5.74,-31.28 0,-12.06 -1.91,-22.58 -5.74,-31.57 -3.82,-8.99 -9.13,-15.98 -15.92,-20.95 -6.79,-4.97 -14.68,-7.46 -23.67,-7.46 -8.99,0 -16.89,2.49 -23.68,7.46 -6.79,4.97 -12.05,11.96 -15.78,20.95 -3.72,8.99 -5.59,19.51 -5.59,31.57 0,11.86 1.87,22.29 5.59,31.28 3.74,8.99 8.99,15.97 15.78,20.95 6.79,4.97 14.69,7.46 23.68,7.46z"/>
  <path id="_15_300" class="fil6" d="M6184.32 3325.25c-16.45,0 -28.55,-5.17 -36.3,-15.5 -7.75,-10.34 -11.62,-25.45 -11.62,-45.35l0 -98.72 26.4 0 0 95.56c0,14.35 2.29,24.82 6.88,31.43 4.59,6.6 12.05,9.89 22.38,9.89 8.04,0 15.22,-2.1 21.53,-6.31 6.32,-4.21 13.2,-10.91 20.66,-20.1l0 -110.48 26.12 0 0 155.83 -21.8 0 -2.02 -24.4 -0.85 0c-7.28,8.42 -14.98,15.22 -23.11,20.39 -8.13,5.17 -17.55,7.75 -28.27,7.75z"/>
  <path id="_16_301" class="fil6" d="M6312.9 3321.52l0 -155.83 21.53 0 2.58 28.41 0.56 0c5.36,-9.95 11.91,-17.84 19.66,-23.68 7.75,-5.83 15.93,-8.75 24.54,-8.75 3.64,0 6.75,0.24 9.33,0.71 2.58,0.48 5.03,1.4 7.32,2.73l-4.88 22.67c-2.67,-0.76 -5.07,-1.38 -7.17,-1.87 -2.11,-0.47 -4.78,-0.71 -8.04,-0.71 -6.32,0 -13.11,2.73 -20.37,8.19 -7.28,5.45 -13.49,14.77 -18.66,27.97l0 100.16 -26.4 0z"/>
  <path id="_17_302" class="fil6" d="M6481.64 3325.25c-13.77,0 -26.16,-3.21 -37.16,-9.62 -11,-6.41 -19.7,-15.69 -26.12,-27.85 -6.41,-12.14 -9.62,-26.83 -9.62,-44.04 0,-17.41 3.45,-32.19 10.33,-44.34 6.89,-12.14 16.07,-21.47 27.56,-27.97 11.47,-6.51 23.82,-9.77 37.02,-9.77 10.13,0 18.89,1.82 26.25,5.45 7.37,3.63 13.73,7.94 19.08,12.91l-13.2 17.23c-4.39,-4.02 -9.13,-7.28 -14.21,-9.77 -5.07,-2.48 -10.67,-3.72 -16.79,-3.72 -9.37,0 -17.79,2.49 -25.25,7.46 -7.46,4.97 -13.29,11.96 -17.5,20.95 -4.22,8.99 -6.32,19.51 -6.32,31.57 0,11.86 2.05,22.29 6.17,31.28 4.12,8.99 9.75,15.97 16.94,20.95 7.17,4.97 15.54,7.46 25.1,7.46 7.28,0 13.97,-1.49 20.1,-4.45 6.12,-2.96 11.67,-6.64 16.64,-11.05l11.48 17.79c-7.08,6.12 -14.92,10.91 -23.53,14.35 -8.61,3.44 -17.61,5.17 -26.98,5.17z"/>
  <path id="_18_303" class="fil6" d="M6621.98 3325.25c-13.97,0 -26.6,-3.26 -37.89,-9.77 -11.29,-6.5 -20.24,-15.83 -26.83,-27.97 -6.6,-12.15 -9.9,-26.74 -9.9,-43.77 0,-12.82 1.91,-24.25 5.74,-34.3 3.83,-10.04 9.04,-18.64 15.65,-25.83 6.6,-7.17 14.1,-12.63 22.52,-16.35 8.43,-3.74 17.03,-5.6 25.84,-5.6 13.39,0 24.67,2.96 33.86,8.9 9.18,5.93 16.21,14.4 21.09,25.4 4.88,11 7.32,23.96 7.32,38.88 0,2.87 -0.1,5.55 -0.29,8.04 -0.2,2.49 -0.48,4.78 -0.86,6.89l-105.04 0c0.58,11.09 3.11,20.71 7.61,28.84 4.5,8.13 10.47,14.45 17.94,18.94 7.46,4.5 16.17,6.75 26.12,6.75 7.64,0 14.59,-1.11 20.8,-3.31 6.21,-2.19 12.29,-5.21 18.23,-9.04l9.18 17.51c-6.7,4.39 -14.25,8.13 -22.67,11.18 -8.42,3.07 -17.89,4.6 -28.41,4.6zm-49.08 -94.13l83.51 0c0,-15.69 -3.39,-27.7 -10.18,-36.02 -6.79,-8.32 -16.32,-12.49 -28.56,-12.49 -7.26,0 -14.1,1.91 -20.51,5.74 -6.41,3.83 -11.77,9.28 -16.07,16.36 -4.3,7.08 -7.03,15.88 -8.19,26.4z"/>
  <path id="_19_304" class="fil6" d="M6817.98 3325.25c-8.61,0 -16.36,-1.73 -23.24,-5.17 -6.88,-3.45 -12.29,-8.47 -16.21,-15.07 -3.92,-6.61 -5.88,-14.59 -5.88,-23.96 0,-17.03 7.6,-30.09 22.81,-39.18 15.21,-9.09 39.47,-15.45 72.75,-19.08 0,-6.7 -0.91,-13.06 -2.73,-19.08 -1.81,-6.03 -5.02,-10.91 -9.6,-14.64 -4.6,-3.72 -11.2,-5.59 -19.81,-5.59 -8.99,0 -17.46,1.76 -25.4,5.3 -7.93,3.54 -15.06,7.32 -21.38,11.35l-10.04 -18.09c4.78,-3.06 10.33,-6.17 16.65,-9.32 6.31,-3.16 13.2,-5.79 20.66,-7.9 7.46,-2.1 15.39,-3.16 23.82,-3.16 12.63,0 22.91,2.69 30.84,8.04 7.94,5.36 13.78,12.78 17.51,22.24 3.72,9.48 5.59,20.71 5.59,33.73l0 95.85 -21.53 0 -2.29 -18.66 -0.86 0c-7.26,6.12 -15.25,11.38 -23.96,15.78 -8.71,4.4 -17.94,6.61 -27.7,6.61zm7.46 -21.24c7.46,0 14.6,-1.73 21.39,-5.17 6.79,-3.45 13.92,-8.52 21.38,-15.21l0 -43.34c-17.41,1.91 -31.28,4.65 -41.61,8.17 -10.33,3.54 -17.7,7.85 -22.1,12.93 -4.39,5.06 -6.6,11.05 -6.6,17.93 0,8.99 2.67,15.36 8.04,19.08 5.35,3.74 11.86,5.6 19.51,5.6z"/>
  <path id="_20_305" class="fil6" d="M6996.2 3393.26c-12.63,0 -23.82,-1.63 -33.58,-4.88 -9.77,-3.25 -17.32,-7.98 -22.68,-14.21 -5.35,-6.21 -8.04,-13.72 -8.04,-22.53 0,-6.69 2.02,-13.14 6.03,-19.37 4.02,-6.21 9.66,-11.52 16.94,-15.92l0 -1.43c-4.02,-2.49 -7.37,-5.85 -10.05,-10.05 -2.67,-4.21 -4.01,-9.37 -4.01,-15.5 0,-6.5 1.87,-12.24 5.59,-17.21 3.74,-4.98 7.61,-8.9 11.62,-11.77l0 -1.14c-5.17,-4.02 -9.85,-9.66 -14.06,-16.94 -4.21,-7.26 -6.32,-15.59 -6.32,-24.96 0,-11.48 2.67,-21.38 8.04,-29.7 5.36,-8.32 12.49,-14.74 21.38,-19.23 8.9,-4.5 18.52,-6.75 28.85,-6.75 4.59,0 8.75,0.38 12.49,1.15 3.72,0.76 6.93,1.72 9.6,2.87l54.25 0 0 20.09 -31.86 0c3.83,3.63 6.88,8.23 9.18,13.78 2.29,5.55 3.45,11.67 3.45,18.37 0,11.09 -2.54,20.71 -7.61,28.84 -5.06,8.13 -11.91,14.4 -20.51,18.79 -8.61,4.4 -18.28,6.61 -28.99,6.61 -3.63,0 -7.51,-0.48 -11.62,-1.44 -4.12,-0.95 -7.9,-2.29 -11.33,-4.01 -2.87,2.29 -5.27,4.88 -7.18,7.75 -1.91,2.87 -2.86,6.5 -2.86,10.91 0,4.78 1.9,8.8 5.73,12.05 3.83,3.25 11,4.88 21.53,4.88l30.7 0c17.99,0 31.52,2.97 40.61,8.9 9.09,5.93 13.63,15.3 13.63,28.12 0,9.57 -3.25,18.46 -9.75,26.69 -6.5,8.22 -15.63,14.83 -27.41,19.8 -11.76,4.98 -25.68,7.46 -41.75,7.46zm-0.29 -138.89c6.12,0 11.71,-1.53 16.79,-4.59 5.07,-3.07 9.09,-7.37 12.05,-12.93 2.97,-5.55 4.45,-12.05 4.45,-19.51 0,-7.66 -1.48,-14.21 -4.45,-19.66 -2.96,-5.45 -6.93,-9.62 -11.91,-12.49 -4.97,-2.87 -10.62,-4.3 -16.93,-4.3 -5.94,0 -11.44,1.43 -16.5,4.3 -5.07,2.87 -9.09,6.99 -12.06,12.35 -2.96,5.35 -4.44,11.96 -4.44,19.8 0,7.46 1.52,13.96 4.59,19.51 3.06,5.56 7.08,9.86 12.05,12.93 4.98,3.06 10.42,4.59 16.36,4.59zm4.01 120.81c9.95,0 18.61,-1.52 25.98,-4.59 7.37,-3.06 13.11,-7.03 17.21,-11.91 4.12,-4.88 6.17,-9.89 6.17,-15.06 0,-7.47 -2.67,-12.64 -8.04,-15.51 -5.35,-2.86 -13.19,-4.3 -23.53,-4.3l-26.97 0c-2.87,0 -6.08,-0.14 -9.62,-0.43 -3.54,-0.29 -7.03,-0.91 -10.47,-1.87 -5.56,3.83 -9.57,8.08 -12.06,12.78 -2.49,4.68 -3.72,9.22 -3.72,13.63 0,8.22 3.97,14.83 11.91,19.8 7.93,4.98 18.98,7.46 33.14,7.46z"/>
  <path id="_21_306" class="fil6" d="M7163.51 3325.25c-13.97,0 -26.6,-3.26 -37.89,-9.77 -11.29,-6.5 -20.24,-15.83 -26.83,-27.97 -6.6,-12.15 -9.9,-26.74 -9.9,-43.77 0,-12.82 1.91,-24.25 5.74,-34.3 3.83,-10.04 9.04,-18.64 15.65,-25.83 6.6,-7.17 14.1,-12.63 22.52,-16.35 8.43,-3.74 17.03,-5.6 25.84,-5.6 13.39,0 24.67,2.96 33.86,8.9 9.18,5.93 16.21,14.4 21.09,25.4 4.88,11 7.32,23.96 7.32,38.88 0,2.87 -0.1,5.55 -0.29,8.04 -0.2,2.49 -0.48,4.78 -0.86,6.89l-105.04 0c0.58,11.09 3.11,20.71 7.61,28.84 4.5,8.13 10.47,14.45 17.94,18.94 7.46,4.5 16.17,6.75 26.12,6.75 7.64,0 14.59,-1.11 20.8,-3.31 6.21,-2.19 12.29,-5.21 18.23,-9.04l9.18 17.51c-6.7,4.39 -14.25,8.13 -22.67,11.18 -8.42,3.07 -17.89,4.6 -28.41,4.6zm-49.08 -94.13l83.51 0c0,-15.69 -3.39,-27.7 -10.18,-36.02 -6.79,-8.32 -16.32,-12.49 -28.56,-12.49 -7.26,0 -14.1,1.91 -20.51,5.74 -6.41,3.83 -11.77,9.28 -16.07,16.36 -4.3,7.08 -7.03,15.88 -8.19,26.4z"/>
  <path id="_22_307" class="fil6" d="M7259.36 3321.52l0 -155.83 21.53 0 2.58 22.67 0.56 0c7.47,-7.46 15.36,-13.78 23.68,-18.94 8.32,-5.17 17.84,-7.75 28.55,-7.75 16.45,0 28.51,5.21 36.17,15.65 7.64,10.42 11.47,25.59 11.47,45.49l0 98.72 -26.12 0 0 -95.27c0,-14.74 -2.34,-25.35 -7.03,-31.86 -4.68,-6.5 -12.19,-9.77 -22.53,-9.77 -8.02,0 -15.21,2.02 -21.52,6.03 -6.32,4.02 -13.31,9.95 -20.95,17.79l0 113.08 -26.4 0z"/>
  <path id="_23" class="fil6" d="M7483.21 3325.25c-10.91,0 -19.61,-2.16 -26.12,-6.46 -6.5,-4.31 -11.14,-10.39 -13.92,-18.23 -2.78,-7.84 -4.16,-16.93 -4.16,-27.27l0 -86.37 -23.24 0 0 -19.81 24.69 -1.43 2.86 -43.91 21.81 0 0 43.91 42.48 0 0 21.24 -42.48 0 0 87.24c0,9.37 1.78,16.7 5.32,21.95 3.54,5.27 9.8,7.9 18.79,7.9 2.87,0 5.93,-0.44 9.18,-1.29 3.25,-0.86 6.12,-1.87 8.61,-3.02l5.17 19.81c-4.4,1.53 -9.09,2.87 -14.07,4.01 -4.97,1.15 -9.94,1.73 -14.92,1.73z"/>
  <path id="_24" class="fil6" d="M7647.65 3325.25c-10.91,0 -21.47,-2.06 -31.71,-6.18 -10.24,-4.1 -18.99,-9.22 -26.27,-15.35l12.64 -17.5c6.88,5.55 13.96,10.04 21.23,13.48 7.28,3.45 15.6,5.17 24.97,5.17 10.33,0 18.03,-2.34 23.11,-7.02 5.06,-4.69 7.6,-10.48 7.6,-17.36 0,-5.36 -1.76,-9.81 -5.3,-13.35 -3.54,-3.54 -8.04,-6.6 -13.49,-9.18 -5.45,-2.58 -11.05,-4.92 -16.79,-7.03 -7.28,-2.87 -14.4,-6.08 -21.39,-9.62 -6.98,-3.54 -12.72,-8.13 -17.21,-13.77 -4.5,-5.65 -6.75,-12.87 -6.75,-21.68 0,-8.42 2.11,-15.92 6.32,-22.53 4.21,-6.6 10.33,-11.85 18.37,-15.77 8.04,-3.93 17.7,-5.89 28.99,-5.89 9.56,0 18.51,1.73 26.83,5.17 8.32,3.45 15.45,7.66 21.38,12.63l-12.63 16.36c-5.36,-3.83 -10.86,-7.08 -16.5,-9.75 -5.65,-2.67 -11.91,-4.02 -18.81,-4.02 -9.94,0 -17.26,2.25 -21.95,6.75 -4.68,4.5 -7.02,9.81 -7.02,15.93 0,4.78 1.58,8.8 4.73,12.05 3.16,3.25 7.32,5.98 12.49,8.19 5.17,2.19 10.62,4.44 16.36,6.73 5.74,2.11 11.43,4.4 17.08,6.89 5.64,2.49 10.71,5.45 15.21,8.89 4.5,3.45 8.13,7.7 10.91,12.78 2.77,5.07 4.16,11.33 4.16,18.79 0,8.42 -2.16,16.17 -6.46,23.24 -4.31,7.08 -10.62,12.68 -18.94,16.79 -8.32,4.12 -18.7,6.18 -31.14,6.18z"/>
  <polygon id="_25" class="fil6" points="7741.22,3321.52 7741.22,3093.08 7767.04,3093.08 7767.04,3247.76 7768.2,3247.76 7834.19,3165.69 7863.47,3165.69 7811.53,3228.54 7870.35,3321.52 7841.94,3321.52 7796.32,3246.33 7767.04,3280.48 7767.04,3321.52 "/>
  <path id="_26" class="fil6" d="M7899.63 3321.52l0 -155.83 26.4 0 0 155.83 -26.4 0zm13.2 -187.97c-5.17,0 -9.33,-1.58 -12.49,-4.74 -3.16,-3.15 -4.74,-7.41 -4.74,-12.76 0,-5.17 1.58,-9.28 4.74,-12.35 3.16,-3.06 7.32,-4.59 12.49,-4.59 5.17,0 9.37,1.53 12.63,4.59 3.25,3.07 4.88,7.18 4.88,12.35 0,5.35 -1.63,9.62 -4.88,12.76 -3.25,3.16 -7.46,4.74 -12.63,4.74z"/>
  <path id="_27" class="fil6" d="M8006.1 3325.25c-6.5,0 -11.76,-1.35 -15.78,-4.02 -4.01,-2.67 -6.98,-6.65 -8.89,-11.91 -1.91,-5.26 -2.87,-11.53 -2.87,-18.79l0 -197.44 26.4 0 0 199.16c0,4.02 0.71,6.89 2.14,8.61 1.44,1.72 3.11,2.58 5.03,2.58 0.76,0 1.53,-0.05 2.29,-0.15 0.77,-0.09 1.82,-0.23 3.16,-0.43l3.72 20.09c-1.9,0.58 -4.01,1.11 -6.31,1.58 -2.29,0.48 -5.26,0.73 -8.9,0.73z"/>
  <path id="_28" class="fil6" d="M8087.6 3325.25c-6.5,0 -11.76,-1.35 -15.78,-4.02 -4.01,-2.67 -6.98,-6.65 -8.89,-11.91 -1.91,-5.26 -2.87,-11.53 -2.87,-18.79l0 -197.44 26.4 0 0 199.16c0,4.02 0.71,6.89 2.14,8.61 1.44,1.72 3.11,2.58 5.03,2.58 0.76,0 1.53,-0.05 2.29,-0.15 0.77,-0.09 1.82,-0.23 3.16,-0.43l3.72 20.09c-1.9,0.58 -4.01,1.11 -6.31,1.58 -2.29,0.48 -5.26,0.73 -8.9,0.73z"/>
  <path id="_29" class="fil6" d="M8182.31 3325.25c-10.91,0 -21.47,-2.06 -31.71,-6.18 -10.24,-4.1 -18.99,-9.22 -26.27,-15.35l12.64 -17.5c6.88,5.55 13.96,10.04 21.23,13.48 7.28,3.45 15.6,5.17 24.97,5.17 10.33,0 18.03,-2.34 23.11,-7.02 5.06,-4.69 7.6,-10.48 7.6,-17.36 0,-5.36 -1.76,-9.81 -5.3,-13.35 -3.54,-3.54 -8.04,-6.6 -13.49,-9.18 -5.45,-2.58 -11.05,-4.92 -16.79,-7.03 -7.28,-2.87 -14.4,-6.08 -21.39,-9.62 -6.98,-3.54 -12.72,-8.13 -17.21,-13.77 -4.5,-5.65 -6.75,-12.87 -6.75,-21.68 0,-8.42 2.11,-15.92 6.32,-22.53 4.21,-6.6 10.33,-11.85 18.37,-15.77 8.04,-3.93 17.7,-5.89 28.99,-5.89 9.56,0 18.51,1.73 26.83,5.17 8.32,3.45 15.45,7.66 21.38,12.63l-12.63 16.36c-5.36,-3.83 -10.86,-7.08 -16.5,-9.75 -5.65,-2.67 -11.91,-4.02 -18.81,-4.02 -9.94,0 -17.26,2.25 -21.95,6.75 -4.68,4.5 -7.02,9.81 -7.02,15.93 0,4.78 1.58,8.8 4.73,12.05 3.16,3.25 7.32,5.98 12.49,8.19 5.17,2.19 10.62,4.44 16.36,6.73 5.74,2.11 11.43,4.4 17.08,6.89 5.64,2.49 10.71,5.45 15.21,8.89 4.5,3.45 8.13,7.7 10.91,12.78 2.77,5.07 4.16,11.33 4.16,18.79 0,8.42 -2.16,16.17 -6.46,23.24 -4.31,7.08 -10.62,12.68 -18.94,16.79 -8.32,4.12 -18.7,6.18 -31.14,6.18z"/>
  <polygon id="_30" class="fil6" points="8326.95,3249.78 8326.95,3231.98 8556.83,3231.98 8556.83,3249.78 "/>
  <path id="_31" class="fil6" d="M8665.3 3321.52l0 -180.8c0,-10.52 1.63,-19.61 4.88,-27.26 3.25,-7.66 8.23,-13.58 14.93,-17.79 6.69,-4.21 15.21,-6.32 25.54,-6.32 4.78,0 9.42,0.47 13.92,1.43 4.5,0.96 8.57,2.11 12.2,3.45l-5.74 20.37c-5.74,-2.87 -11.58,-4.3 -17.5,-4.3 -7.46,0 -13.02,2.58 -16.65,7.75 -3.63,5.17 -5.45,12.82 -5.45,22.96l0 180.51 -26.12 0zm-21.24 -134.59l0 -19.81 22.39 -1.43 57.97 0 0 21.24 -80.36 0z"/>
  <path id="_32" class="fil6" d="M8754.27 3321.52l0 -155.83 21.53 0 2.58 28.41 0.56 0c5.36,-9.95 11.91,-17.84 19.66,-23.68 7.75,-5.83 15.93,-8.75 24.54,-8.75 3.64,0 6.75,0.24 9.33,0.71 2.58,0.48 5.03,1.4 7.32,2.73l-4.88 22.67c-2.67,-0.76 -5.07,-1.38 -7.17,-1.87 -2.11,-0.47 -4.78,-0.71 -8.04,-0.71 -6.32,0 -13.11,2.73 -20.37,8.19 -7.28,5.45 -13.49,14.77 -18.66,27.97l0 100.16 -26.4 0z"/>
  <path id="_33" class="fil6" d="M8924.74 3325.25c-13.97,0 -26.6,-3.26 -37.89,-9.77 -11.29,-6.5 -20.24,-15.83 -26.83,-27.97 -6.6,-12.15 -9.9,-26.74 -9.9,-43.77 0,-12.82 1.91,-24.25 5.74,-34.3 3.83,-10.04 9.04,-18.64 15.65,-25.83 6.6,-7.17 14.1,-12.63 22.52,-16.35 8.43,-3.74 17.03,-5.6 25.84,-5.6 13.39,0 24.67,2.96 33.86,8.9 9.18,5.93 16.21,14.4 21.09,25.4 4.88,11 7.32,23.96 7.32,38.88 0,2.87 -0.1,5.55 -0.29,8.04 -0.2,2.49 -0.48,4.78 -0.86,6.89l-105.04 0c0.58,11.09 3.11,20.71 7.61,28.84 4.5,8.13 10.47,14.45 17.94,18.94 7.46,4.5 16.17,6.75 26.12,6.75 7.64,0 14.59,-1.11 20.8,-3.31 6.21,-2.19 12.29,-5.21 18.23,-9.04l9.18 17.51c-6.7,4.39 -14.25,8.13 -22.67,11.18 -8.42,3.07 -17.89,4.6 -28.41,4.6zm-49.08 -94.13l83.51 0c0,-15.69 -3.39,-27.7 -10.18,-36.02 -6.79,-8.32 -16.32,-12.49 -28.56,-12.49 -7.26,0 -14.1,1.91 -20.51,5.74 -6.41,3.83 -11.77,9.28 -16.07,16.36 -4.3,7.08 -7.03,15.88 -8.19,26.4z"/>
  <path id="_34" class="fil6" d="M9083.73 3325.25c-13.97,0 -26.6,-3.26 -37.89,-9.77 -11.29,-6.5 -20.24,-15.83 -26.83,-27.97 -6.6,-12.15 -9.9,-26.74 -9.9,-43.77 0,-12.82 1.91,-24.25 5.74,-34.3 3.83,-10.04 9.04,-18.64 15.65,-25.83 6.6,-7.17 14.1,-12.63 22.52,-16.35 8.43,-3.74 17.03,-5.6 25.84,-5.6 13.39,0 24.67,2.96 33.86,8.9 9.18,5.93 16.21,14.4 21.09,25.4 4.88,11 7.32,23.96 7.32,38.88 0,2.87 -0.1,5.55 -0.29,8.04 -0.2,2.49 -0.48,4.78 -0.86,6.89l-105.04 0c0.58,11.09 3.11,20.71 7.61,28.84 4.5,8.13 10.47,14.45 17.94,18.94 7.46,4.5 16.17,6.75 26.12,6.75 7.64,0 14.59,-1.11 20.8,-3.31 6.21,-2.19 12.29,-5.21 18.23,-9.04l9.18 17.51c-6.7,4.39 -14.25,8.13 -22.67,11.18 -8.42,3.07 -17.89,4.6 -28.41,4.6zm-49.08 -94.13l83.51 0c0,-15.69 -3.39,-27.7 -10.18,-36.02 -6.79,-8.32 -16.32,-12.49 -28.56,-12.49 -7.26,0 -14.1,1.91 -20.51,5.74 -6.41,3.83 -11.77,9.28 -16.07,16.36 -4.3,7.08 -7.03,15.88 -8.19,26.4z"/>
  <path id="_35" class="fil6" d="M9292.64 3325.25c-10.91,0 -19.61,-2.16 -26.12,-6.46 -6.5,-4.31 -11.14,-10.39 -13.92,-18.23 -2.78,-7.84 -4.16,-16.93 -4.16,-27.27l0 -86.37 -23.24 0 0 -19.81 24.69 -1.43 2.86 -43.91 21.81 0 0 43.91 42.48 0 0 21.24 -42.48 0 0 87.24c0,9.37 1.78,16.7 5.32,21.95 3.54,5.27 9.8,7.9 18.79,7.9 2.87,0 5.93,-0.44 9.18,-1.29 3.25,-0.86 6.12,-1.87 8.61,-3.02l5.17 19.81c-4.4,1.53 -9.09,2.87 -14.07,4.01 -4.97,1.15 -9.94,1.73 -14.92,1.73z"/>
  <path id="_36" class="fil6" d="M9407.45 3325.25c-12.63,0 -24.49,-3.21 -35.59,-9.62 -11.09,-6.41 -19.95,-15.69 -26.54,-27.85 -6.6,-12.14 -9.9,-26.83 -9.9,-44.04 0,-17.41 3.31,-32.19 9.9,-44.34 6.6,-12.14 15.45,-21.47 26.54,-27.97 11.1,-6.51 22.97,-9.77 35.59,-9.77 9.56,0 18.7,1.82 27.41,5.45 8.71,3.63 16.41,8.99 23.09,16.07 6.7,7.08 11.96,15.69 15.78,25.83 3.83,10.15 5.74,21.71 5.74,34.73 0,17.21 -3.34,31.9 -10.04,44.04 -6.7,12.15 -15.5,21.43 -26.4,27.85 -10.91,6.41 -22.77,9.62 -35.58,9.62zm0 -21.81c8.99,0 16.88,-2.49 23.67,-7.46 6.79,-4.98 12.11,-11.96 15.92,-20.95 3.83,-8.99 5.74,-19.42 5.74,-31.28 0,-12.06 -1.91,-22.58 -5.74,-31.57 -3.82,-8.99 -9.13,-15.98 -15.92,-20.95 -6.79,-4.97 -14.68,-7.46 -23.67,-7.46 -8.99,0 -16.89,2.49 -23.68,7.46 -6.79,4.97 -12.05,11.96 -15.78,20.95 -3.72,8.99 -5.59,19.51 -5.59,31.57 0,11.86 1.87,22.29 5.59,31.28 3.74,8.99 8.99,15.97 15.78,20.95 6.79,4.97 14.69,7.46 23.68,7.46z"/>
  <path id="_37" class="fil6" d="M9630.7 3325.25c-16.45,0 -28.55,-5.17 -36.3,-15.5 -7.75,-10.34 -11.62,-25.45 -11.62,-45.35l0 -98.72 26.4 0 0 95.56c0,14.35 2.29,24.82 6.88,31.43 4.59,6.6 12.05,9.89 22.38,9.89 8.04,0 15.22,-2.1 21.53,-6.31 6.32,-4.21 13.2,-10.91 20.66,-20.1l0 -110.48 26.12 0 0 155.83 -21.8 0 -2.02 -24.4 -0.85 0c-7.28,8.42 -14.98,15.22 -23.11,20.39 -8.13,5.17 -17.55,7.75 -28.27,7.75z"/>
  <path id="_38" class="fil6" d="M9800.02 3325.25c-10.91,0 -21.47,-2.06 -31.71,-6.18 -10.24,-4.1 -18.99,-9.22 -26.27,-15.35l12.64 -17.5c6.88,5.55 13.96,10.04 21.23,13.48 7.28,3.45 15.6,5.17 24.97,5.17 10.33,0 18.03,-2.34 23.11,-7.02 5.06,-4.69 7.6,-10.48 7.6,-17.36 0,-5.36 -1.76,-9.81 -5.3,-13.35 -3.54,-3.54 -8.04,-6.6 -13.49,-9.18 -5.45,-2.58 -11.05,-4.92 -16.79,-7.03 -7.28,-2.87 -14.4,-6.08 -21.39,-9.62 -6.98,-3.54 -12.72,-8.13 -17.21,-13.77 -4.5,-5.65 -6.75,-12.87 -6.75,-21.68 0,-8.42 2.11,-15.92 6.32,-22.53 4.21,-6.6 10.33,-11.85 18.37,-15.77 8.04,-3.93 17.7,-5.89 28.99,-5.89 9.56,0 18.51,1.73 26.83,5.17 8.32,3.45 15.45,7.66 21.38,12.63l-12.63 16.36c-5.36,-3.83 -10.86,-7.08 -16.5,-9.75 -5.65,-2.67 -11.91,-4.02 -18.81,-4.02 -9.94,0 -17.26,2.25 -21.95,6.75 -4.68,4.5 -7.02,9.81 -7.02,15.93 0,4.78 1.58,8.8 4.73,12.05 3.16,3.25 7.32,5.98 12.49,8.19 5.17,2.19 10.62,4.44 16.36,6.73 5.74,2.11 11.43,4.4 17.08,6.89 5.64,2.49 10.71,5.45 15.21,8.89 4.5,3.45 8.13,7.7 10.91,12.78 2.77,5.07 4.16,11.33 4.16,18.79 0,8.42 -2.16,16.17 -6.46,23.24 -4.31,7.08 -10.62,12.68 -18.94,16.79 -8.32,4.12 -18.7,6.18 -31.14,6.18z"/>
  <path id="_39" class="fil6" d="M9956.73 3325.25c-13.97,0 -26.6,-3.26 -37.89,-9.77 -11.29,-6.5 -20.24,-15.83 -26.83,-27.97 -6.6,-12.15 -9.9,-26.74 -9.9,-43.77 0,-12.82 1.91,-24.25 5.74,-34.3 3.83,-10.04 9.04,-18.64 15.65,-25.83 6.6,-7.17 14.1,-12.63 22.52,-16.35 8.43,-3.74 17.03,-5.6 25.84,-5.6 13.39,0 24.67,2.96 33.86,8.9 9.18,5.93 16.21,14.4 21.09,25.4 4.88,11 7.32,23.96 7.32,38.88 0,2.87 -0.1,5.55 -0.29,8.04 -0.2,2.49 -0.48,4.78 -0.86,6.89l-105.04 0c0.58,11.09 3.11,20.71 7.61,28.84 4.5,8.13 10.47,14.45 17.94,18.94 7.46,4.5 16.17,6.75 26.12,6.75 7.64,0 14.59,-1.11 20.8,-3.31 6.21,-2.19 12.29,-5.21 18.23,-9.04l9.18 17.51c-6.7,4.39 -14.25,8.13 -22.67,11.18 -8.42,3.07 -17.89,4.6 -28.41,4.6zm-49.08 -94.13l83.51 0c0,-15.69 -3.39,-27.7 -10.18,-36.02 -6.79,-8.32 -16.32,-12.49 -28.56,-12.49 -7.26,0 -14.1,1.91 -20.51,5.74 -6.41,3.83 -11.77,9.28 -16.07,16.36 -4.3,7.08 -7.03,15.88 -8.19,26.4z"/>
  <g id="_2231422532992">
   <path class="fil7" d="M1422.74 1633.06l1317.88 0c309.96,0 561.33,251.37 561.33,561.33l0 1317.88c0,309.96 -251.37,561.33 -561.33,561.33l-1317.88 0c-309.95,0 -561.32,-251.37 -561.32,-561.33l-0.01 -1317.88c0.01,-309.96 251.38,-561.33 561.34,-561.33z"/>
   <path class="fil8" d="M1561.03 1916.17l1041.3 0c230,0 416.52,186.52 416.52,416.51l-0.01 1041.3c0.01,229.99 -186.51,416.51 -416.51,416.51l-1041.3 0c-229.99,0 -416.51,-186.52 -416.51,-416.52l0 -1041.29c0,-229.99 186.52,-416.51 416.52,-416.51z"/>
   <g>
    <path class="fil9" d="M1568.39 1826.79l1026.58 0c283.42,-0.02 513.28,229.84 513.28,513.26l-0.02 1026.58c0.02,283.4 -229.84,513.26 -513.26,513.26l-1026.58 0c-283.4,0 -513.26,-229.86 -513.26,-513.28l0 -1026.55c0,-283.42 229.86,-513.28 513.28,-513.28z"/>
    <g>
     <path class="fil10" d="M2137.54 2992.99c0,30.84 -25.02,55.86 -55.86,55.86 -30.84,0 -55.86,-25.02 -55.86,-55.86l111.73 0zm0 -678.37l0 678.37 -111.73 0 0 -678.37 111.73 0zm-111.73 0c0,-30.84 25.02,-55.86 55.86,-55.86 30.84,0 55.86,25.02 55.86,55.86l-111.73 0z"/>
    </g>
    <g>
     <path class="fil10" d="M1992.46 2877.06c-26.59,-15.63 -35.47,-49.88 -19.83,-76.47 15.63,-26.59 49.88,-35.47 76.47,-19.83l-56.64 96.3zm678.38 399.03l-678.38 -399.03 56.64 -96.3 678.38 399.03 -56.64 96.3zm56.64 -96.3c26.59,15.63 35.47,49.88 19.83,76.47 -15.63,26.59 -49.88,35.47 -76.47,19.83l56.64 -96.3z"/>
    </g>
    <g>
     <path class="fil10" d="M2012.06 2841.04c17.96,-25.08 52.88,-30.84 77.95,-12.88 25.08,17.96 30.84,52.88 12.88,77.95l-90.83 -65.08zm-458.34 639.8l458.34 -639.8 90.83 65.08 -458.34 639.8 -90.83 -65.08zm90.83 65.08c-17.96,25.08 -52.88,30.84 -77.95,12.88 -25.08,-17.96 -30.84,-52.88 -12.88,-77.95l90.83 65.08z"/>
    </g>
    <circle class="fil11" cx="2081.68" cy="2853.33" r="301.93"/>
    <circle class="fil11" cx="2081.68" cy="2218" r="183.54"/>
    <circle class="fil11" cx="2624.3" cy="3178.77" r="183.54"/>
    <circle class="fil11" cx="1620.62" cy="3475.19" r="217.38"/>
   </g>
  </g>
  <path class="fil4" d="M3846.46 4177.39l0 -35.96 47.94 0.3 0 -134.24 -40.45 -0.3 0 -27.27c11.18,-2.19 20.82,-4.8 28.92,-7.78 8.08,-3 15.63,-6.6 22.62,-10.79l32.66 0 0 180.09 41.65 0.3 0 35.66 -133.34 0z"/>
  <path id="_1_308" class="fil4" d="M4087.09 4181.59c-15.19,0 -28.42,-4.35 -39.71,-13.04 -11.29,-8.68 -20.03,-21.42 -26.22,-38.2 -6.19,-16.79 -9.28,-37.36 -9.28,-61.73 0,-24.57 3.09,-45.09 9.28,-61.58 6.19,-16.48 14.93,-28.92 26.22,-37.3 11.29,-8.39 24.52,-12.59 39.71,-12.59 15.19,0 28.41,4.2 39.7,12.59 11.29,8.38 20.03,20.82 26.22,37.3 6.19,16.49 9.29,37.01 9.29,61.58 0,24.37 -3.1,44.94 -9.29,61.73 -6.19,16.78 -14.93,29.52 -26.22,38.2 -11.29,8.69 -24.51,13.04 -39.7,13.04zm0 -34.46c6.6,0 12.38,-2.34 17.38,-7.04 4.99,-4.69 8.89,-12.78 11.69,-24.27 2.79,-11.48 4.2,-27.21 4.2,-47.19 0,-20.18 -1.41,-35.86 -4.2,-47.04 -2.8,-11.2 -6.7,-18.98 -11.69,-23.37 -4.99,-4.4 -10.78,-6.6 -17.38,-6.6 -6.19,0 -11.84,2.19 -16.94,6.6 -5.08,4.39 -9.13,12.18 -12.13,23.37 -3,11.18 -4.5,26.87 -4.5,47.04 0,19.98 1.5,35.71 4.5,47.19 3,11.5 7.04,19.58 12.13,24.27 5.1,4.7 10.75,7.04 16.94,7.04z"/>
  <path id="_2_309" class="fil4" d="M4263.89 4181.59c-15.19,0 -28.42,-4.35 -39.71,-13.04 -11.29,-8.68 -20.03,-21.42 -26.22,-38.2 -6.19,-16.79 -9.28,-37.36 -9.28,-61.73 0,-24.57 3.09,-45.09 9.28,-61.58 6.19,-16.48 14.93,-28.92 26.22,-37.3 11.29,-8.39 24.52,-12.59 39.71,-12.59 15.19,0 28.41,4.2 39.7,12.59 11.29,8.38 20.03,20.82 26.22,37.3 6.19,16.49 9.29,37.01 9.29,61.58 0,24.37 -3.1,44.94 -9.29,61.73 -6.19,16.78 -14.93,29.52 -26.22,38.2 -11.29,8.69 -24.51,13.04 -39.7,13.04zm0 -34.46c6.6,0 12.38,-2.34 17.38,-7.04 4.99,-4.69 8.89,-12.78 11.69,-24.27 2.79,-11.48 4.2,-27.21 4.2,-47.19 0,-20.18 -1.41,-35.86 -4.2,-47.04 -2.8,-11.2 -6.7,-18.98 -11.69,-23.37 -4.99,-4.4 -10.78,-6.6 -17.38,-6.6 -6.19,0 -11.84,2.19 -16.94,6.6 -5.08,4.39 -9.13,12.18 -12.13,23.37 -3,11.18 -4.5,26.87 -4.5,47.04 0,19.98 1.5,35.71 4.5,47.19 3,11.5 7.04,19.58 12.13,24.27 5.1,4.7 10.75,7.04 16.94,7.04z"/>
  <polygon id="_3_310" class="fil4" points="4424.21,4144.43 4424.21,4080.91 4363.68,4080.61 4363.98,4049.44 4424.21,4049.74 4424.21,3985.61 4456.87,3985.91 4456.87,4049.44 4517.4,4049.74 4517.4,4080.91 4456.87,4080.61 4456.87,4144.43 "/>
  <path id="_4_311" class="fil4" d="M4690.62 4181.59c-14.79,0 -29.27,-2.8 -43.46,-8.39 -14.18,-5.59 -26.67,-13.58 -37.45,-23.97l25.47 -30.57c7.78,7.39 16.73,13.34 26.82,17.84 10.09,4.49 19.92,6.73 29.52,6.73 11.58,0 20.37,-2.29 26.37,-6.88 5.98,-4.6 8.98,-10.79 8.98,-18.59 0,-5.59 -1.44,-10.03 -4.35,-13.33 -2.89,-3.3 -6.84,-6.25 -11.83,-8.84 -4.99,-2.59 -10.79,-5.19 -17.39,-7.79l-29.36 -12.88c-7.4,-3 -14.54,-7.04 -21.43,-12.14 -6.88,-5.1 -12.58,-11.53 -17.08,-19.32 -4.5,-7.79 -6.75,-17.08 -6.75,-27.87 0,-12.19 3.3,-23.07 9.89,-32.66 6.6,-9.59 15.68,-17.23 27.27,-22.92 11.59,-5.7 24.77,-8.54 39.55,-8.54 13.19,0 25.87,2.5 38.06,7.49 12.19,4.99 22.77,12.08 31.77,21.27l-22.47 27.57c-7,-5.79 -14.29,-10.28 -21.88,-13.48 -7.59,-3.19 -16.07,-4.8 -25.47,-4.8 -9.58,0 -17.23,2.04 -22.92,6.15 -5.7,4.09 -8.53,9.84 -8.53,17.23 0,5.2 1.59,9.49 4.78,12.89 3.21,3.39 7.39,6.34 12.59,8.83 5.19,2.5 10.88,5.05 17.08,7.64l29.07 11.69c8.99,3.59 16.83,8.08 23.52,13.48 6.7,5.4 11.89,11.89 15.59,19.47 3.69,7.6 5.55,16.79 5.55,27.57 0,11.99 -3.25,23.07 -9.74,33.26 -6.49,10.19 -15.78,18.38 -27.87,24.57 -12.08,6.19 -26.72,9.29 -43.89,9.29z"/>
  <polygon id="_5_312" class="fil4" points="4807.78,4177.39 4807.78,3938.27 4851.23,3938.27 4851.23,4081.51 4852.42,4081.51 4909.66,4009.59 4957.91,4009.59 4900.37,4078.81 4963.29,4177.39 4915.35,4177.39 4874.6,4107.58 4851.23,4134.85 4851.23,4177.39 "/>
  <path id="_6_313" class="fil4" d="M4988.76 4177.39l0 -167.81 44.06 0 0 167.81 -44.06 0zm22.17 -195.08c-7.78,0 -13.99,-2.14 -18.57,-6.45 -4.59,-4.29 -6.89,-10.13 -6.89,-17.53 0,-7.19 2.31,-12.98 6.89,-17.38 4.59,-4.39 10.79,-6.6 18.57,-6.6 7.39,0 13.49,2.2 18.29,6.6 4.78,4.39 7.18,10.18 7.18,17.38 0,7.39 -2.4,13.24 -7.18,17.53 -4.8,4.3 -10.9,6.45 -18.29,6.45z"/>
  <path id="_7_314" class="fil4" d="M5121.52 4181.59c-10.39,0 -18.59,-2.14 -24.57,-6.45 -6,-4.29 -10.34,-10.28 -13.04,-17.98 -2.7,-7.69 -4.05,-16.64 -4.05,-26.82l0 -192.08 44.06 0 0 193.88c0,4.99 0.95,8.49 2.84,10.48 1.9,2.01 3.85,3 5.85,3 1,0 1.9,-0.05 2.7,-0.15 0.8,-0.09 1.9,-0.24 3.3,-0.45l5.4 32.66c-2.59,1 -5.74,1.9 -9.44,2.7 -3.69,0.8 -8.04,1.2 -13.03,1.2z"/>
  <path id="_8_315" class="fil4" d="M5215.92 4181.59c-10.39,0 -18.59,-2.14 -24.57,-6.45 -6,-4.29 -10.34,-10.28 -13.04,-17.98 -2.7,-7.69 -4.05,-16.64 -4.05,-26.82l0 -192.08 44.06 0 0 193.88c0,4.99 0.95,8.49 2.84,10.48 1.9,2.01 3.85,3 5.85,3 1,0 1.9,-0.05 2.7,-0.15 0.8,-0.09 1.9,-0.24 3.3,-0.45l5.4 32.66c-2.59,1 -5.74,1.9 -9.44,2.7 -3.69,0.8 -8.04,1.2 -13.03,1.2z"/>
  <path id="_9_316" class="fil4" d="M5316.6 4181.59c-11.18,0 -22.52,-2.2 -34,-6.6 -11.5,-4.39 -21.43,-9.99 -29.82,-16.78l20.07 -27.87c7.39,5.59 14.74,10.03 22.02,13.33 7.3,3.3 14.93,4.95 22.92,4.95 8.39,0 14.54,-1.65 18.44,-4.95 3.9,-3.3 5.83,-7.54 5.83,-12.73 0,-4.2 -1.69,-7.75 -5.08,-10.64 -3.4,-2.89 -7.79,-5.49 -13.19,-7.79 -5.4,-2.29 -10.99,-4.54 -16.78,-6.73 -7,-2.8 -13.94,-6.19 -20.83,-10.19 -6.88,-4 -12.63,-9.14 -17.23,-15.43 -4.59,-6.3 -6.89,-14.14 -6.89,-23.53 0,-9.99 2.61,-18.83 7.79,-26.52 5.2,-7.69 12.44,-13.73 21.72,-18.13 9.29,-4.39 20.33,-6.6 33.11,-6.6 12.19,0 23.03,2.1 32.51,6.3 9.49,4.2 17.63,8.99 24.42,14.39l-19.77 26.67c-6,-4.4 -11.95,-7.9 -17.84,-10.49 -5.89,-2.59 -11.93,-3.9 -18.13,-3.9 -7.79,0 -13.48,1.5 -17.08,4.5 -3.6,3 -5.4,6.89 -5.4,11.69 0,3.99 1.5,7.33 4.5,10.03 3,2.7 7.09,5.05 12.28,7.04 5.2,1.99 10.69,4.09 16.49,6.3 5.59,1.99 11.14,4.34 16.63,7.03 5.49,2.7 10.54,5.95 15.13,9.74 4.6,3.79 8.24,8.44 10.94,13.94 2.7,5.49 4.05,12.13 4.05,19.92 0,9.79 -2.55,18.72 -7.64,26.82 -5.1,8.09 -12.58,14.48 -22.47,19.17 -9.89,4.69 -22.13,7.04 -36.71,7.04z"/>
  <path class="fil12" d="M5792.28 4057.97c0,-31.82 -25.8,-57.63 -57.63,-57.63 -31.83,0 -57.64,25.8 -57.64,57.63 0,31.83 25.8,57.63 57.64,57.63 31.82,0 57.63,-25.79 57.63,-57.63z"/>
  <path class="fil4" d="M6184.97 4181.88c-19.58,0 -36.82,-4.65 -51.69,-13.94 -14.89,-9.28 -26.52,-22.62 -34.91,-40 -8.39,-17.39 -12.59,-38.15 -12.59,-62.33 0,-23.97 4.2,-44.45 12.59,-61.43 8.39,-16.97 20.03,-29.97 34.91,-38.95 14.87,-8.99 32.11,-13.49 51.69,-13.49 19.77,0 37.06,4.54 51.84,13.64 14.78,9.09 26.37,22.07 34.76,38.95 8.38,16.88 12.58,37.31 12.58,61.28 0,24.18 -4.2,44.94 -12.58,62.33 -8.39,17.38 -19.98,30.72 -34.76,40 -14.78,9.29 -32.07,13.94 -51.84,13.94zm0 -38.36c10.99,0 20.52,-3.19 28.62,-9.58 8.08,-6.4 14.33,-15.44 18.72,-27.12 4.39,-11.69 6.6,-25.42 6.6,-41.21 0,-15.78 -2.2,-29.31 -6.6,-40.6 -4.39,-11.29 -10.64,-19.98 -18.72,-26.07 -8.09,-6.1 -17.63,-9.14 -28.62,-9.14 -10.99,0 -20.52,3.04 -28.62,9.14 -8.09,6.09 -14.29,14.78 -18.59,26.07 -4.29,11.29 -6.43,24.81 -6.43,40.6 0,15.78 2.14,29.52 6.43,41.21 4.3,11.68 10.49,20.72 18.59,27.12 8.09,6.39 17.63,9.58 28.62,9.58z"/>
  <path id="_1_317" class="fil4" d="M6331.51 4177.68l0 -179.19c0,-11.39 2.04,-21.68 6.15,-30.87 4.09,-9.19 10.58,-16.49 19.47,-21.87 8.89,-5.4 20.52,-8.09 34.91,-8.09 6.58,0 12.83,0.6 18.72,1.8 5.89,1.2 10.94,2.7 15.13,4.5l-8.38 32.65c-2.8,-1.4 -5.8,-2.44 -8.99,-3.15 -3.19,-0.69 -6.99,-1.04 -11.39,-1.04 -6.39,0 -11.63,2.14 -15.73,6.43 -4.09,4.3 -6.15,10.84 -6.15,19.64l0 179.19 -43.74 0zm104.28 0l0 -181.29c0,-11.59 1.99,-22.08 6,-31.47 3.99,-9.4 10.24,-16.83 18.72,-22.32 8.49,-5.5 19.73,-8.24 33.71,-8.24 6.79,0 12.88,0.6 18.28,1.8 5.4,1.2 10,2.49 13.79,3.9l-8.09 32.96c-5.79,-2.61 -11.78,-3.9 -17.98,-3.9 -6.4,0 -11.39,2.1 -14.99,6.28 -3.6,4.2 -5.4,10.9 -5.4,20.09l0 182.19 -44.04 0zm-127.05 -133.05l0 -32.66 25.17 -2.1 177.69 0 0 34.76 -202.86 0zm272.69 137.24c-10.19,0 -18.33,-2.14 -24.42,-6.45 -6.1,-4.29 -10.49,-10.28 -13.19,-17.98 -2.7,-7.69 -4.05,-16.64 -4.05,-26.82l0 -192.08 44.06 0 0 193.88c0,4.99 0.95,8.49 2.84,10.48 1.9,2.01 3.85,3 5.85,3 0.81,0 1.65,-0.05 2.55,-0.15 0.9,-0.09 2.05,-0.24 3.45,-0.45l5.4 32.66c-2.4,1 -5.44,1.9 -9.14,2.7 -3.69,0.8 -8.14,1.2 -13.33,1.2z"/>
  <path id="_2_318" class="fil4" d="M6634.46 4177.68l0 -167.81 44.06 0 0 167.81 -44.06 0zm22.17 -195.08c-7.78,0 -13.99,-2.14 -18.57,-6.45 -4.59,-4.29 -6.89,-10.13 -6.89,-17.53 0,-7.19 2.31,-12.98 6.89,-17.38 4.59,-4.39 10.79,-6.6 18.57,-6.6 7.39,0 13.49,2.2 18.29,6.6 4.78,4.39 7.18,10.18 7.18,17.38 0,7.39 -2.4,13.24 -7.18,17.53 -4.8,4.3 -10.9,6.45 -18.29,6.45z"/>
  <path id="_3_319" class="fil4" d="M6725.56 4177.68l0 -167.81 35.96 0 3.3 22.17 0.9 0c7.39,-7.18 15.47,-13.37 24.27,-18.57 8.79,-5.19 18.87,-7.79 30.27,-7.79 18.17,0 31.36,5.95 39.55,17.84 8.2,11.89 12.29,28.41 12.29,49.59l0 104.58 -44.06 0 0 -99.18c0,-12.99 -1.84,-22.08 -5.53,-27.27 -3.7,-5.2 -9.74,-7.79 -18.14,-7.79 -6.79,0 -12.73,1.6 -17.83,4.8 -5.1,3.19 -10.73,7.89 -16.93,14.08l0 115.37 -44.06 0z"/>
  <path id="_4_320" class="fil4" d="M6990.75 4181.88c-15.58,0 -29.66,-3.49 -42.25,-10.49 -12.59,-6.99 -22.62,-17.08 -30.12,-30.27 -7.49,-13.18 -11.23,-28.96 -11.23,-47.34 0,-13.58 2.14,-25.77 6.43,-36.56 4.3,-10.78 10.19,-20.03 17.69,-27.72 7.48,-7.69 15.88,-13.58 25.17,-17.68 9.28,-4.09 18.92,-6.15 28.92,-6.15 15.38,0 28.26,3.45 38.65,10.34 10.39,6.89 18.23,16.38 23.52,28.47 5.3,12.08 7.94,25.92 7.94,41.5 0,4 -0.2,7.84 -0.6,11.54 -0.4,3.69 -0.9,6.64 -1.5,8.84l-103.38 0c1.2,8.98 3.9,16.58 8.09,22.77 4.19,6.19 9.58,10.84 16.18,13.93 6.6,3.1 14.09,4.65 22.47,4.65 6.79,0 13.19,-0.95 19.19,-2.85 5.98,-1.89 12.08,-4.74 18.28,-8.53l14.98 26.97c-8.19,5.59 -17.38,10.08 -27.57,13.48 -10.18,3.4 -20.48,5.1 -30.87,5.1zm-41.65 -105.18l68.62 0c0,-11.2 -2.54,-20.13 -7.63,-26.82 -5.1,-6.7 -13.13,-10.04 -24.12,-10.04 -5.8,0 -11.29,1.35 -16.49,4.05 -5.19,2.7 -9.58,6.79 -13.18,12.28 -3.6,5.5 -6,12.34 -7.19,20.54z"/>
  <polygon id="_5_321" class="fil4" points="7084.24,4107.57 7084.54,4076.1 7166.35,4076.4 7166.35,4107.87 "/>
  <path id="_6_322" class="fil4" d="M7204.41 4177.68l0 -167.81 35.96 0 3.3 29.67 0.9 0c6.19,-10.99 13.48,-19.38 21.87,-25.17 8.39,-5.79 16.98,-8.69 25.77,-8.69 4.8,0 8.64,0.36 11.53,1.05 2.91,0.7 5.55,1.56 7.94,2.55l-7.19 38.06c-3.19,-0.81 -6.04,-1.45 -8.53,-1.95 -2.5,-0.5 -5.65,-0.75 -9.44,-0.75 -6.39,0 -13.13,2.49 -20.22,7.49 -7.09,4.99 -13.04,13.48 -17.83,25.47l0 100.08 -44.06 0z"/>
  <path id="_7_323" class="fil4" d="M7403.37 4181.88c-15.58,0 -29.66,-3.49 -42.25,-10.49 -12.59,-6.99 -22.62,-17.08 -30.12,-30.27 -7.49,-13.18 -11.23,-28.96 -11.23,-47.34 0,-13.58 2.14,-25.77 6.43,-36.56 4.3,-10.78 10.19,-20.03 17.69,-27.72 7.48,-7.69 15.88,-13.58 25.17,-17.68 9.28,-4.09 18.92,-6.15 28.92,-6.15 15.38,0 28.26,3.45 38.65,10.34 10.39,6.89 18.23,16.38 23.52,28.47 5.3,12.08 7.94,25.92 7.94,41.5 0,4 -0.2,7.84 -0.6,11.54 -0.4,3.69 -0.9,6.64 -1.5,8.84l-103.38 0c1.2,8.98 3.9,16.58 8.09,22.77 4.19,6.19 9.58,10.84 16.18,13.93 6.6,3.1 14.09,4.65 22.47,4.65 6.79,0 13.19,-0.95 19.19,-2.85 5.98,-1.89 12.08,-4.74 18.28,-8.53l14.98 26.97c-8.19,5.59 -17.38,10.08 -27.57,13.48 -10.18,3.4 -20.48,5.1 -30.87,5.1zm-41.65 -105.18l68.62 0c0,-11.2 -2.54,-20.13 -7.63,-26.82 -5.1,-6.7 -13.13,-10.04 -24.12,-10.04 -5.8,0 -11.29,1.35 -16.49,4.05 -5.19,2.7 -9.58,6.79 -13.18,12.28 -3.6,5.5 -6,12.34 -7.19,20.54z"/>
  <path id="_8_324" class="fil4" d="M7539.43 4181.88c-9.79,0 -18.44,-2.14 -25.92,-6.45 -7.49,-4.29 -13.29,-10.24 -17.39,-17.83 -4.09,-7.6 -6.15,-16.19 -6.15,-25.77 0,-17.78 7.69,-31.62 23.08,-41.51 15.38,-9.88 39.85,-16.63 73.41,-20.22 -0.2,-5.59 -1.2,-10.54 -3,-14.84 -1.8,-4.29 -4.74,-7.74 -8.84,-10.33 -4.09,-2.59 -9.64,-3.9 -16.63,-3.9 -7.79,0 -15.48,1.5 -23.07,4.5 -7.6,3 -15.29,6.89 -23.07,11.68l-15.59 -29.36c6.6,-4.2 13.58,-7.9 20.97,-11.09 7.39,-3.19 15.19,-5.85 23.38,-7.94 8.19,-2.1 16.67,-3.15 25.47,-3.15 14.18,0 26.07,2.8 35.65,8.39 9.59,5.59 16.79,13.88 21.58,24.87 4.78,10.99 7.18,24.57 7.18,40.76l0 97.98 -35.95 0 -3 -17.98 -1.5 0c-7.19,6.39 -14.99,11.68 -23.37,15.88 -8.39,4.2 -17.48,6.3 -27.27,6.3zm14.68 -34.46c6.19,0 11.84,-1.45 16.93,-4.35 5.1,-2.89 10.24,-6.94 15.44,-12.13l0 -33.56c-13.58,1.6 -24.37,3.9 -32.36,6.89 -7.99,3 -13.69,6.54 -17.08,10.63 -3.4,4.09 -5.1,8.65 -5.1,13.64 0,6.6 2.04,11.38 6.15,14.38 4.09,3 9.43,4.5 16.03,4.5z"/>
  <path id="_9_325" class="fil4" d="M7734.49 4181.88c-13.99,0 -26.12,-3.49 -36.41,-10.49 -10.28,-6.99 -18.23,-17.08 -23.82,-30.27 -5.59,-13.18 -8.39,-28.96 -8.39,-47.34 0,-18.18 3.36,-33.81 10.04,-46.89 6.7,-13.09 15.44,-23.22 26.22,-30.42 10.79,-7.19 22.17,-10.79 34.16,-10.79 9.39,0 17.33,1.65 23.82,4.95 6.49,3.3 12.74,7.75 18.72,13.34l-1.5 -26.37 0 -59.03 44.06 0 0 239.12 -35.96 0 -3.3 -17.38 -1.2 0c-6.19,5.98 -13.28,11.08 -21.27,15.28 -7.99,4.2 -16.38,6.3 -25.17,6.3zm11.39 -36.26c5.98,0 11.53,-1.35 16.63,-4.05 5.1,-2.7 10.04,-7.14 14.83,-13.33l0 -73.71c-4.99,-4.6 -10.13,-7.85 -15.43,-9.74 -5.29,-1.9 -10.64,-2.85 -16.03,-2.85 -6.2,0 -11.95,1.95 -17.24,5.85 -5.29,3.9 -9.54,9.64 -12.73,17.23 -3.21,7.6 -4.8,16.98 -4.8,28.17 0,11.59 1.35,21.27 4.05,29.07 2.7,7.79 6.64,13.64 11.83,17.53 5.2,3.9 11.48,5.85 18.89,5.85z"/>
  <path id="_10_326" class="fil4" d="M7883.13 4244.81c-5,0 -9.29,-0.3 -12.89,-0.9 -3.6,-0.6 -6.99,-1.41 -10.19,-2.4l8.09 -33.56c1.6,0.4 3.45,0.85 5.55,1.35 2.1,0.5 4.14,0.75 6.15,0.75 8.59,0 15.38,-2.4 20.37,-7.19 4.99,-4.8 8.69,-10.88 11.09,-18.28l2.99 -10.19 -65.32 -164.51 44.34 0 26.67 77.91c2.59,7.6 4.99,15.38 7.19,23.37 2.2,7.99 4.5,15.99 6.89,23.98l1.5 0c1.8,-7.99 3.75,-15.93 5.83,-23.83 2.1,-7.89 4.15,-15.73 6.15,-23.52l23.07 -77.91 42.26 0 -59.63 172.9c-4.8,13.18 -10.28,24.42 -16.48,33.71 -6.19,9.28 -13.54,16.33 -22.03,21.12 -8.49,4.8 -19.02,7.19 -31.6,7.19z"/>
 </g>
</svg>
